<?xml version="1.0" encoding="UTF-8" standalone="no"?>
<!-- Created with Inkscape (http://www.inkscape.org/) -->

<svg
   xmlns:dc="http://purl.org/dc/elements/1.1/"
   xmlns:cc="http://creativecommons.org/ns#"
   xmlns:rdf="http://www.w3.org/1999/02/22-rdf-syntax-ns#"
   xmlns:svg="http://www.w3.org/2000/svg"
   xmlns="http://www.w3.org/2000/svg"
   xmlns:sodipodi="http://sodipodi.sourceforge.net/DTD/sodipodi-0.dtd"
   xmlns:inkscape="http://www.inkscape.org/namespaces/inkscape"
   width="744.09448819"
   height="1052.3622047"
   id="svg3912"
   version="1.1"
   inkscape:version="0.48.4 r9939"
   sodipodi:docname="New document 6">
  <defs
     id="defs3914" />
  <sodipodi:namedview
     id="base"
     pagecolor="#ffffff"
     bordercolor="#666666"
     borderopacity="1.0"
     inkscape:pageopacity="0.0"
     inkscape:pageshadow="2"
     inkscape:zoom="1.4"
     inkscape:cx="375"
     inkscape:cy="243.26102"
     inkscape:document-units="px"
     inkscape:current-layer="layer1"
     showgrid="false"
     showguides="true"
     inkscape:guide-bbox="true"
     inkscape:window-width="1366"
     inkscape:window-height="684"
     inkscape:window-x="-8"
     inkscape:window-y="-8"
     inkscape:window-maximized="1" />
  <metadata
     id="metadata3917">
    <rdf:RDF>
      <cc:Work
         rdf:about="">
        <dc:format>image/svg+xml</dc:format>
        <dc:type
           rdf:resource="http://purl.org/dc/dcmitype/StillImage" />
        <dc:title></dc:title>
      </cc:Work>
    </rdf:RDF>
  </metadata>
  <g
     inkscape:label="Layer 1"
     inkscape:groupmode="layer"
     id="layer1">
    <g
       id="g3924">
      <path
         d="m 393.57142,250.57646 a 114.64286,114.64286 0 1 1 -229.28572,0 114.64286,114.64286 0 1 1 229.28572,0 z"
         sodipodi:ry="114.64286"
         sodipodi:rx="114.64286"
         sodipodi:cy="250.57646"
         sodipodi:cx="278.92856"
         id="path3920"
         style="fill:#37abc8;fill-opacity:1;stroke:#000000;stroke-width:0.50000000000000000;stroke-miterlimit:4;stroke-opacity:1;stroke-dasharray:none"
         sodipodi:type="arc" />
      <path
         transform="matrix(0.91296239,0,0,0.91296239,24.277275,21.809576)"
         sodipodi:type="arc"
         style="fill:#374548;fill-opacity:1;stroke:#000000;stroke-width:0.50000000000000000;stroke-miterlimit:4;stroke-opacity:1;stroke-dasharray:none"
         id="path3922"
         sodipodi:cx="278.92856"
         sodipodi:cy="250.57646"
         sodipodi:rx="114.64286"
         sodipodi:ry="114.64286"
         d="m 393.57142,250.57646 a 114.64286,114.64286 0 1 1 -229.28572,0 114.64286,114.64286 0 1 1 229.28572,0 z" />
    </g>
    <path
       d="m 393.57142,250.57646 a 114.64286,114.64286 0 1 1 -229.28572,0 114.64286,114.64286 0 1 1 229.28572,0 z"
       sodipodi:ry="114.64286"
       sodipodi:rx="114.64286"
       sodipodi:cy="250.57646"
       sodipodi:cx="278.92856"
       id="path3941"
       style="fill:#37abc8;fill-opacity:1;stroke:#000000;stroke-width:0.5;stroke-miterlimit:4;stroke-opacity:1;stroke-dasharray:none"
       sodipodi:type="arc"
       transform="translate(0,240)" />
    <g
       id="g3947">
      <path
         id="path3936"
         d="M 558.9375 129.53125 C 492.07932 129.53125 437.875 183.70432 437.875 250.5625 C 437.875 317.42068 492.07932 371.625 558.9375 371.625 C 625.79568 371.625 680 317.42068 680 250.5625 C 680 183.70432 625.79568 129.53125 558.9375 129.53125 z M 558.9375 135.9375 C 622.253 135.9375 673.5625 187.247 673.5625 250.5625 C 673.5625 313.878 622.253 365.21875 558.9375 365.21875 C 495.622 365.21875 444.28125 313.878 444.28125 250.5625 C 444.28125 187.247 495.622 135.9375 558.9375 135.9375 z "
         style="fill:#0000ff;fill-opacity:1;stroke:#000000;stroke-width:0.52797633;stroke-miterlimit:4;stroke-opacity:1;stroke-dasharray:none" />
      <path
         d="m 393.57142,250.57646 a 114.64286,114.64286 0 1 1 -229.28572,0 114.64286,114.64286 0 1 1 229.28572,0 z"
         sodipodi:ry="114.64286"
         sodipodi:rx="114.64286"
         sodipodi:cy="250.57646"
         sodipodi:cx="278.92856"
         id="path3943"
         style="fill:#374548;fill-opacity:1;stroke:#000000;stroke-width:0.5;stroke-miterlimit:4;stroke-opacity:1;stroke-dasharray:none"
         sodipodi:type="arc"
         transform="matrix(0.91296239,0,0,0.91296239,304.28622,21.81124)" />
    </g>
    <g
       id="g3951">
      <path
         style="fill:#0000ff;fill-opacity:1;stroke:#000000;stroke-width:0.52797633;stroke-miterlimit:4;stroke-opacity:1;stroke-dasharray:none"
         d="M 558.9375 129.53125 C 492.07932 129.53125 437.875 183.70432 437.875 250.5625 C 437.875 317.42068 492.07932 371.625 558.9375 371.625 C 625.79568 371.625 680 317.42068 680 250.5625 C 680 183.70432 625.79568 129.53125 558.9375 129.53125 z M 558.9375 135.9375 C 622.253 135.9375 673.5625 187.247 673.5625 250.5625 C 673.5625 313.878 622.253 365.21875 558.9375 365.21875 C 495.622 365.21875 444.28125 313.878 444.28125 250.5625 C 444.28125 187.247 495.622 135.9375 558.9375 135.9375 z "
         id="path3953" />
      <path
         transform="matrix(0.91296239,0,0,0.91296239,304.28622,21.81124)"
         sodipodi:type="arc"
         style="fill:#374548;fill-opacity:1;stroke:#000000;stroke-width:0.5;stroke-miterlimit:4;stroke-opacity:1;stroke-dasharray:none"
         id="path3955"
         sodipodi:cx="278.92856"
         sodipodi:cy="250.57646"
         sodipodi:rx="114.64286"
         sodipodi:ry="114.64286"
         d="m 393.57142,250.57646 a 114.64286,114.64286 0 1 1 -229.28572,0 114.64286,114.64286 0 1 1 229.28572,0 z" />
    </g>
    <g
       id="g4473">
      <path
         id="path3959"
         d="m 561.08036,418.81696 c -66.85818,0 -121.0625,54.17307 -121.0625,121.03125 0,66.85818 54.20432,121.0625 121.0625,121.0625 66.85818,0 121.0625,-54.20432 121.0625,-121.0625 0,-66.85818 -54.20432,-121.03125 -121.0625,-121.03125 z m 0,6.40625 c 63.3155,0 114.625,51.3095 114.625,114.625 0,63.3155 -51.3095,114.65625 -114.625,114.65625 -63.3155,0 -114.65625,-51.34075 -114.65625,-114.65625 0,-63.3155 51.34075,-114.625 114.65625,-114.625 z"
         style="fill:#dc9b3d;fill-opacity:1;stroke:none;stroke-width:0.52797632999999999;stroke-miterlimit:4;stroke-opacity:1;stroke-dasharray:none"
         inkscape:connector-curvature="0" />
      <path
         d="m 393.57142,250.57646 a 114.64286,114.64286 0 1 1 -229.28572,0 114.64286,114.64286 0 1 1 229.28572,0 z"
         sodipodi:ry="114.64286"
         sodipodi:rx="114.64286"
         sodipodi:cy="250.57646"
         sodipodi:cx="278.92856"
         id="path3961"
         style="fill:#dc9b3d;fill-opacity:1;stroke:none;stroke-width:0.50000000000000000;stroke-miterlimit:4;stroke-opacity:1;stroke-dasharray:none"
         sodipodi:type="arc"
         transform="matrix(0.91296239,0,0,0.91296239,306.42908,311.09695)" />
    </g>
    <g
       id="g4477"
       transform="translate(-402.14286,197.85714)">
      <path
         inkscape:connector-curvature="0"
         style="fill:#dc9b3d;fill-opacity:1;stroke:none"
         d="m 561.08036,418.81696 c -66.85818,0 -121.0625,54.17307 -121.0625,121.03125 0,66.85818 54.20432,121.0625 121.0625,121.0625 66.85818,0 121.0625,-54.20432 121.0625,-121.0625 0,-66.85818 -54.20432,-121.03125 -121.0625,-121.03125 z m 0,6.40625 c 63.3155,0 114.625,51.3095 114.625,114.625 0,63.3155 -51.3095,114.65625 -114.625,114.65625 -63.3155,0 -114.65625,-51.34075 -114.65625,-114.65625 0,-63.3155 51.34075,-114.625 114.65625,-114.625 z"
         id="path4479" />
      <path
         transform="matrix(0.91296239,0,0,0.91296239,306.42908,311.09695)"
         sodipodi:type="arc"
         style="fill:#dc9b3d;fill-opacity:1;stroke:none"
         id="path4481"
         sodipodi:cx="278.92856"
         sodipodi:cy="250.57646"
         sodipodi:rx="114.64286"
         sodipodi:ry="114.64286"
         d="m 393.57142,250.57646 c 0,63.31551 -51.32736,114.64286 -114.64286,114.64286 -63.31551,0 -114.64286,-51.32735 -114.64286,-114.64286 0,-63.3155 51.32735,-114.64286 114.64286,-114.64286 63.3155,0 114.64286,51.32736 114.64286,114.64286 z" />
    </g>
  </g>
</svg>
