<?xml version="1.0" encoding="UTF-8" standalone="no"?>
<!-- Created with Inkscape (http://www.inkscape.org/) -->

<svg
   xmlns:dc="http://purl.org/dc/elements/1.1/"
   xmlns:cc="http://creativecommons.org/ns#"
   xmlns:rdf="http://www.w3.org/1999/02/22-rdf-syntax-ns#"
   xmlns:svg="http://www.w3.org/2000/svg"
   xmlns="http://www.w3.org/2000/svg"
   xmlns:sodipodi="http://sodipodi.sourceforge.net/DTD/sodipodi-0.dtd"
   xmlns:inkscape="http://www.inkscape.org/namespaces/inkscape"
   width="744.09448819"
   height="1052.3622047"
   id="svg3073"
   version="1.1"
   inkscape:version="0.48.4 r9939"
   sodipodi:docname="fb_logo.svg">
  <defs
     id="defs3075" />
  <sodipodi:namedview
     id="base"
     pagecolor="#ffffff"
     bordercolor="#666666"
     borderopacity="1.0"
     inkscape:pageopacity="0.0"
     inkscape:pageshadow="2"
     inkscape:zoom="1.4142136"
     inkscape:cx="213.32054"
     inkscape:cy="845.00255"
     inkscape:document-units="px"
     inkscape:current-layer="layer1"
     showgrid="false"
     inkscape:window-width="1366"
     inkscape:window-height="684"
     inkscape:window-x="-8"
     inkscape:window-y="-8"
     inkscape:window-maximized="1" />
  <metadata
     id="metadata3078">
    <rdf:RDF>
      <cc:Work
         rdf:about="">
        <dc:format>image/svg+xml</dc:format>
        <dc:type
           rdf:resource="http://purl.org/dc/dcmitype/StillImage" />
        <dc:title></dc:title>
      </cc:Work>
    </rdf:RDF>
  </metadata>
  <g
     inkscape:label="Layer 1"
     inkscape:groupmode="layer"
     id="layer1">
    <path
       style="fill:none;stroke:#000000;stroke-width:1px;stroke-linecap:butt;stroke-linejoin:miter;stroke-opacity:1"
       d="m -67.382699,-131.0455 c 0.262,-63.07512 -1.0607,-192.89812 -1.0607,-266.57926 -31.1127,-1.99158 -89.449001,-1.06065 -89.449001,-1.06065 0,0 0.7199,-103.5967 1.4143,-103.59115 l 88.388301,0.7071 c 10.8529,-24.28792 -46.005501,-216.57514 142.8356,-214.96045 27.694799,0.23681 67.899599,2.84583 72.478399,3.18197 -0.077,14.41871 0.7071,95.10587 0.7071,95.10587 -70.233799,1.65946 -115.965499,-19.64126 -108.187299,81.31727 2.4114,31.29985 0.3194,35.7821 0.3194,35.7821 21.4467,1.13505 103.625299,-3.26566 103.625299,0.63391 -8.8388,68.13913 -12.2361,94.10738 -15.3449,102.47692 -27.2987,0.12013 -86.549999,-2.2782 -87.539099,-0.29999 -0.7429,69.01471 -0.3607,213.12397 -0.9562,266.42232 -69.8919,0.26534 -7.1183,-0.12412 -107.2312,0.86404 z"
       id="path3904"
       inkscape:connector-curvature="0"
       sodipodi:nodetypes="cccscsccssccccc" />
    <path
       sodipodi:nodetypes="cccscsccssccccc"
       inkscape:connector-curvature="0"
       id="path3906"
       d="m -717.38268,786.9545 c 0.26198,-63.07512 -1.06067,-192.89812 -1.06067,-266.57926 -31.1127,-1.99158 -89.449,-1.06065 -89.449,-1.06065 0,0 0.71989,-103.5967 1.41421,-103.59115 l 88.38835,0.7071 c 10.8529,-24.28792 -46.00552,-216.57514 142.83557,-214.96045 27.69478,0.23681 67.89966,2.84583 72.47845,3.18197 -0.077,14.41871 0.7071,95.10587 0.7071,95.10587 -70.23386,1.65946 -115.96551,-19.64126 -108.18734,81.31727 2.41145,31.29985 0.31943,35.7821 0.31943,35.7821 21.44668,1.13505 103.62527,-3.26566 103.62527,0.63391 -8.83883,68.13913 -12.23607,94.10738 -15.34485,102.47692 -27.29871,0.12013 -86.55008,-2.2782 -87.53918,-0.29999 -0.74286,69.01471 -0.36065,213.12397 -0.95611,266.42232 -69.89192,0.26534 -7.11832,-0.12412 -107.23123,0.86404 z"
       style="fill:#808000;stroke:#000000;stroke-width:1px;stroke-linecap:butt;stroke-linejoin:miter;stroke-opacity:1" />
    <path
       sodipodi:nodetypes="cccscsccssccccc"
       inkscape:connector-curvature="0"
       id="path3910"
       d="m 1020.6173,782.9545 c 0.262,-63.07512 -1.0607,-192.89812 -1.0607,-266.57926 -31.11265,-1.99158 -89.44895,-1.06065 -89.44895,-1.06065 0,0 0.71989,-103.5967 1.41421,-103.59115 l 88.38834,0.7071 c 10.8529,-24.28792 -46.00551,-216.57514 142.8356,-214.96045 27.6948,0.23681 67.8996,2.84583 72.4784,3.18197 -0.077,14.41871 0.7071,95.10587 0.7071,95.10587 -70.2338,1.65946 -115.9655,-19.64126 -108.1873,81.31727 2.4114,31.29985 0.3194,35.7821 0.3194,35.7821 21.4467,1.13505 103.6253,-3.26566 103.6253,0.63391 -8.8388,68.13913 -12.2361,94.10738 -15.3449,102.47692 -27.2987,0.12013 -86.55,-2.2782 -87.5391,-0.29999 -0.7429,69.01471 -0.3607,213.12397 -0.9561,266.42232 -69.892,0.26534 -7.1184,-0.12412 -107.2313,0.86404 z"
       style="fill:none;stroke:#000000;stroke-width:1px;stroke-linecap:butt;stroke-linejoin:miter;stroke-opacity:1" />
    <g
       id="g4477"
       transform="translate(-566.15179,1260.2017)">
      <path
         inkscape:connector-curvature="0"
         style="fill:#dc9b3d;fill-opacity:1;stroke:none"
         d="m 561.08036,418.81696 c -66.85818,0 -121.0625,54.17307 -121.0625,121.03125 0,66.85818 54.20432,121.0625 121.0625,121.0625 66.85818,0 121.0625,-54.20432 121.0625,-121.0625 0,-66.85818 -54.20432,-121.03125 -121.0625,-121.03125 z m 0,6.40625 c 63.3155,0 114.625,51.3095 114.625,114.625 0,63.3155 -51.3095,114.65625 -114.625,114.65625 -63.3155,0 -114.65625,-51.34075 -114.65625,-114.65625 0,-63.3155 51.34075,-114.625 114.65625,-114.625 z"
         id="path4479" />
      <path
         transform="matrix(0.91296239,0,0,0.91296239,306.42908,311.09695)"
         sodipodi:type="arc"
         style="fill:#dc9b3d;fill-opacity:1;stroke:none"
         id="path4481"
         sodipodi:cx="278.92856"
         sodipodi:cy="250.57646"
         sodipodi:rx="114.64286"
         sodipodi:ry="114.64286"
         d="m 393.57142,250.57646 c 0,63.31551 -51.32736,114.64286 -114.64286,114.64286 -63.31551,0 -114.64286,-51.32735 -114.64286,-114.64286 0,-63.3155 51.32735,-114.64286 114.64286,-114.64286 63.3155,0 114.64286,51.32736 114.64286,114.64286 z" />
    </g>
    <g
       id="g4564"
       inkscape:export-filename="C:\Users\milos\Desktop\fb_logo_prim.png"
       inkscape:export-xdpi="95.160004"
       inkscape:export-ydpi="95.160004">
      <g
         id="g4558"
         transform="translate(-372.15179,-321.7983)">
        <path
           inkscape:connector-curvature="0"
           style="fill:#dc9b3d;fill-opacity:1;stroke:none"
           d="m 561.08036,418.81696 c -66.85818,0 -121.0625,54.17307 -121.0625,121.03125 0,66.85818 54.20432,121.0625 121.0625,121.0625 66.85818,0 121.0625,-54.20432 121.0625,-121.0625 0,-66.85818 -54.20432,-121.03125 -121.0625,-121.03125 z m 0,6.40625 c 63.3155,0 114.625,51.3095 114.625,114.625 0,63.3155 -51.3095,114.65625 -114.625,114.65625 -63.3155,0 -114.65625,-51.34075 -114.65625,-114.65625 0,-63.3155 51.34075,-114.625 114.65625,-114.625 z"
           id="path4560" />
        <path
           transform="matrix(0.91296239,0,0,0.91296239,306.42908,311.09695)"
           sodipodi:type="arc"
           style="fill:#dc9b3d;fill-opacity:1;stroke:none"
           id="path4562"
           sodipodi:cx="278.92856"
           sodipodi:cy="250.57646"
           sodipodi:rx="114.64286"
           sodipodi:ry="114.64286"
           d="m 393.57142,250.57646 c 0,63.31551 -51.32736,114.64286 -114.64286,114.64286 -63.31551,0 -114.64286,-51.32735 -114.64286,-114.64286 0,-63.3155 51.32735,-114.64286 114.64286,-114.64286 63.3155,0 114.64286,51.32736 114.64286,114.64286 z" />
      </g>
      <path
         sodipodi:nodetypes="cccscsccssccccc"
         inkscape:connector-curvature="0"
         id="path3908"
         d="m 169.56375,312.91168 c 0.0813,-19.57364 -0.32915,-59.86068 -0.32915,-82.72563 -9.65498,-0.61801 -27.75806,-0.32913 -27.75806,-0.32913 0,0 0.22339,-32.14842 0.43886,-32.14671 l 27.42892,0.21943 c 3.36791,-7.53709 -14.27656,-67.20819 44.32513,-66.70711 8.59432,0.0735 21.07081,0.88312 22.49172,0.98745 -0.0239,4.47445 0.21943,29.51349 0.21943,29.51349 -21.79517,0.51498 -35.98675,-6.09511 -33.57301,25.23461 0.74833,9.71304 0.0992,11.104 0.0992,11.104 6.6554,0.35223 32.15729,-1.01342 32.15729,0.19672 -2.7429,21.14511 -3.79713,29.20367 -4.76186,31.80092 -8.47141,0.0372 -26.85846,-0.70699 -27.1654,-0.0931 -0.23052,21.41683 -0.11186,66.13723 -0.29671,82.67695 -21.68905,0.0823 -2.20898,-0.0385 -33.27629,0.26811 z"
         style="fill:#ffffff;fill-opacity:1;stroke:none" />
    </g>
    <g
       id="g4608"
       inkscape:export-filename="C:\Users\milos\Desktop\fb_logo_hover.png"
       inkscape:export-xdpi="11.89"
       inkscape:export-ydpi="11.89">
      <g
         style="fill:#3b5998;fill-opacity:1"
         transform="translate(-68.09587,-318.26277)"
         id="g4596">
        <path
           id="path4598"
           d="m 561.08036,418.81696 c -66.85818,0 -121.0625,54.17307 -121.0625,121.03125 0,66.85818 54.20432,121.0625 121.0625,121.0625 66.85818,0 121.0625,-54.20432 121.0625,-121.0625 0,-66.85818 -54.20432,-121.03125 -121.0625,-121.03125 z m 0,6.40625 c 63.3155,0 114.625,51.3095 114.625,114.625 0,63.3155 -51.3095,114.65625 -114.625,114.65625 -63.3155,0 -114.65625,-51.34075 -114.65625,-114.65625 0,-63.3155 51.34075,-114.625 114.65625,-114.625 z"
           style="fill:#3b5998;fill-opacity:1;stroke:none"
           inkscape:connector-curvature="0" />
        <path
           d="m 393.57142,250.57646 c 0,63.31551 -51.32736,114.64286 -114.64286,114.64286 -63.31551,0 -114.64286,-51.32735 -114.64286,-114.64286 0,-63.3155 51.32735,-114.64286 114.64286,-114.64286 63.3155,0 114.64286,51.32736 114.64286,114.64286 z"
           sodipodi:ry="114.64286"
           sodipodi:rx="114.64286"
           sodipodi:cy="250.57646"
           sodipodi:cx="278.92856"
           id="path4600"
           style="fill:#3b5998;fill-opacity:1;stroke:none"
           sodipodi:type="arc"
           transform="matrix(0.91296239,0,0,0.91296239,306.42908,311.09695)" />
      </g>
      <path
         style="fill:#ffffff;fill-opacity:1;stroke:none"
         d="m 473.61967,316.44721 c 0.0813,-19.57364 -0.32915,-59.86068 -0.32915,-82.72563 -9.65498,-0.61801 -27.75806,-0.32913 -27.75806,-0.32913 0,0 0.22339,-32.14842 0.43886,-32.14671 l 27.42892,0.21943 c 3.36791,-7.53709 -14.27656,-67.20819 44.32513,-66.70711 8.59432,0.0735 21.07081,0.88312 22.49172,0.98745 -0.0239,4.47445 0.21943,29.51349 0.21943,29.51349 -21.79517,0.51498 -35.98675,-6.09511 -33.57301,25.23461 0.74833,9.71304 0.0992,11.104 0.0992,11.104 6.6554,0.35223 32.15729,-1.01342 32.15729,0.19672 -2.7429,21.14511 -3.79713,29.20367 -4.76186,31.80092 -8.47141,0.0372 -26.85846,-0.70699 -27.1654,-0.0931 -0.23052,21.41683 -0.11186,66.13723 -0.29671,82.67695 -21.68905,0.0823 -2.20898,-0.0385 -33.27629,0.26811 z"
         id="path4602"
         inkscape:connector-curvature="0"
         sodipodi:nodetypes="cccscsccssccccc" />
    </g>
    <g
       id="g4393"
       inkscape:export-filename="\\www-deb\www\dev\projects\number_station\sources_graphic\fb.png"
       inkscape:export-xdpi="11.89"
       inkscape:export-ydpi="11.89">
      <g
         style="fill:#8e9d9f;fill-opacity:1"
         transform="translate(-372.15179,-61.7983)"
         id="g3873">
        <path
           id="path3875"
           d="m 561.08036,418.81696 c -66.85818,0 -121.0625,54.17307 -121.0625,121.03125 0,66.85818 54.20432,121.0625 121.0625,121.0625 66.85818,0 121.0625,-54.20432 121.0625,-121.0625 0,-66.85818 -54.20432,-121.03125 -121.0625,-121.03125 z m 0,6.40625 c 63.3155,0 114.625,51.3095 114.625,114.625 0,63.3155 -51.3095,114.65625 -114.625,114.65625 -63.3155,0 -114.65625,-51.34075 -114.65625,-114.65625 0,-63.3155 51.34075,-114.625 114.65625,-114.625 z"
           style="fill:#8e9d9f;fill-opacity:1;stroke:none"
           inkscape:connector-curvature="0" />
        <path
           d="m 393.57142,250.57646 c 0,63.31551 -51.32736,114.64286 -114.64286,114.64286 -63.31551,0 -114.64286,-51.32735 -114.64286,-114.64286 0,-63.3155 51.32735,-114.64286 114.64286,-114.64286 63.3155,0 114.64286,51.32736 114.64286,114.64286 z"
           sodipodi:ry="114.64286"
           sodipodi:rx="114.64286"
           sodipodi:cy="250.57646"
           sodipodi:cx="278.92856"
           id="path3877"
           style="fill:#8e9d9f;fill-opacity:1;stroke:none"
           sodipodi:type="arc"
           transform="matrix(0.91296239,0,0,0.91296239,306.42908,311.09695)" />
      </g>
      <path
         style="fill:#ffffff;fill-opacity:1;stroke:none"
         d="m 169.56375,572.91168 c 0.0813,-19.57364 -0.32915,-59.86068 -0.32915,-82.72563 -9.65498,-0.61801 -27.75806,-0.32913 -27.75806,-0.32913 0,0 0.22339,-32.14842 0.43886,-32.14671 l 27.42892,0.21943 c 3.36791,-7.53709 -14.27656,-67.20819 44.32513,-66.70711 8.59432,0.0735 21.07081,0.88312 22.49172,0.98745 -0.0239,4.47445 0.21943,29.51349 0.21943,29.51349 -21.79517,0.51498 -35.98675,-6.09511 -33.57301,25.23461 0.74833,9.71304 0.0992,11.104 0.0992,11.104 6.6554,0.35223 32.15729,-1.01342 32.15729,0.19672 -2.7429,21.14511 -3.79713,29.20367 -4.76186,31.80092 -8.47141,0.0372 -26.85846,-0.70699 -27.1654,-0.0931 -0.23052,21.41683 -0.11186,66.13723 -0.29671,82.67695 -21.68905,0.0823 -2.20898,-0.0385 -33.27629,0.26811 z"
         id="path3879"
         inkscape:connector-curvature="0"
         sodipodi:nodetypes="cccscsccssccccc" />
    </g>
  </g>
</svg>
