<?xml version="1.0" encoding="UTF-8" standalone="no"?>
<!-- Created with Inkscape (http://www.inkscape.org/) -->

<svg
   xmlns:dc="http://purl.org/dc/elements/1.1/"
   xmlns:cc="http://creativecommons.org/ns#"
   xmlns:rdf="http://www.w3.org/1999/02/22-rdf-syntax-ns#"
   xmlns:svg="http://www.w3.org/2000/svg"
   xmlns="http://www.w3.org/2000/svg"
   xmlns:xlink="http://www.w3.org/1999/xlink"
   xmlns:sodipodi="http://sodipodi.sourceforge.net/DTD/sodipodi-0.dtd"
   xmlns:inkscape="http://www.inkscape.org/namespaces/inkscape"
   width="744.09448819"
   height="1052.3622047"
   id="svg5248"
   version="1.1"
   inkscape:version="0.48.4 r9939"
   sodipodi:docname="google_plus_logo.svg">
  <defs
     id="defs5250" />
  <sodipodi:namedview
     id="base"
     pagecolor="#ffffff"
     bordercolor="#666666"
     borderopacity="1.0"
     inkscape:pageopacity="0.0"
     inkscape:pageshadow="2"
     inkscape:zoom="1.4"
     inkscape:cx="220.27211"
     inkscape:cy="864.76848"
     inkscape:document-units="px"
     inkscape:current-layer="layer1"
     showgrid="false"
     inkscape:window-width="1366"
     inkscape:window-height="684"
     inkscape:window-x="-8"
     inkscape:window-y="-8"
     inkscape:window-maximized="1" />
  <metadata
     id="metadata5253">
    <rdf:RDF>
      <cc:Work
         rdf:about="">
        <dc:format>image/svg+xml</dc:format>
        <dc:type
           rdf:resource="http://purl.org/dc/dcmitype/StillImage" />
        <dc:title></dc:title>
      </cc:Work>
    </rdf:RDF>
  </metadata>
  <g
     inkscape:label="Layer 1"
     inkscape:groupmode="layer"
     id="layer1">
    <image
       y="15.076455"
       x="793.42859"
       id="image5264"
       xlink:href="file:///C:/Users/milos/Desktop/google-plus-logo.jpg"
       height="526"
       width="1000" />
    <path
       sodipodi:nodetypes="cscsssssscccssscc"
       inkscape:connector-curvature="0"
       id="path5269"
       d="m 923.4978,308.88991 c -40.3231,0.98499 -79.5534,10.59026 -98.4978,33.3759 -18.4565,22.19865 -23.3819,58.54523 7.6453,80.4142 29.6521,20.89973 69.2791,18.43279 102.6317,14.53887 33.9335,-3.96173 68.2654,-33.2297 75.3337,-55.77656 9.7824,-31.20431 -0.9472,-51.4826 -21.3574,-71.18912 -20.4102,-19.70652 -43.4181,-28.91946 -34.6194,-48.11567 3.1759,-6.92874 19.0351,-14.53707 34.3883,-34.92415 8.5871,-11.40254 15.6824,-41.33024 7.9769,-56.89294 -7.0015,-14.14069 -10.9264,-21.27942 -25.3046,-33.50835 7.811,0.13539 11.2018,-0.56474 25.2407,-0.30505 11.0031,-7.59745 13.7257,-8.52079 26.9861,-18.47468 -21.071,-0.0888 -78.6284,-1.54743 -116.6228,2.00662 -39.78,3.72106 -61.9919,31.63779 -66.3881,41.01152 -23.6375,50.4005 4.6131,88.15061 25.0087,95.31148 16.6454,5.8442 21.1607,9.3017 50.0892,8.5504 -10.3571,26.38058 3.142,32.38436 7.4895,43.97753 z"
       style="fill:none;stroke:#000000;stroke-width:1px;stroke-linecap:butt;stroke-linejoin:miter;stroke-opacity:1" />
    <g
       id="g5284">
      <path
         id="path5267"
         d="M 1291.9688 117.65625 C 1270.1962 117.72475 1246.3097 118.25422 1227.3125 120.03125 C 1187.5325 123.75231 1165.3024 151.68877 1160.9062 161.0625 C 1137.2687 211.463 1165.5106 249.21413 1185.9062 256.375 C 1202.5517 262.2192 1207.0715 265.65755 1236 264.90625 C 1225.6429 291.28683 1239.1525 297.28183 1243.5 308.875 C 1203.1769 309.85999 1163.9444 319.49561 1145 342.28125 C 1126.5435 364.4799 1121.6291 400.81853 1152.6562 422.6875 C 1182.3084 443.58723 1221.9287 441.11267 1255.2812 437.21875 C 1289.2148 433.25702 1323.5567 403.98436 1330.625 381.4375 C 1340.4074 350.23319 1329.6602 329.95652 1309.25 310.25 C 1288.8398 290.54348 1265.8263 281.32121 1274.625 262.125 C 1277.8009 255.19626 1293.678 247.60583 1309.0312 227.21875 C 1317.6183 215.81621 1324.7055 185.8752 1317 170.3125 C 1309.9985 156.17181 1306.0657 149.04143 1291.6875 136.8125 C 1299.4985 136.94789 1302.8986 136.24031 1316.9375 136.5 C 1327.9406 128.90255 1330.6458 127.98514 1343.9062 118.03125 C 1333.3708 117.98685 1313.7413 117.58775 1291.9688 117.65625 z M 1226.0312 134.15625 C 1264.8521 132.98305 1296.6898 203.15272 1277.1562 234.6875 C 1249.8323 278.7989 1192.7662 243.37103 1190 188.4375 C 1189.2242 173.03034 1187.5513 158.80601 1198.5625 147.71875 C 1207.7194 138.49863 1217.0726 134.42699 1226.0312 134.15625 z M 1257.9062 320.75 C 1270.5331 329.13107 1289.7207 341.14181 1299.5625 356.4375 C 1309.3825 371.69928 1308.6423 390.59883 1294.75 405.375 C 1285.6997 415.00107 1274.8171 418.1536 1259.9062 420.75 C 1214.1834 428.71167 1137.5264 396.912 1179.3438 341.46875 C 1186.3808 332.13878 1196.8918 329.78246 1206.625 327.0625 C 1221.0466 323.03231 1240.6219 321.3197 1257.9062 320.75 z "
         style="fill:none;stroke:#000000;stroke-width:1px;stroke-linecap:butt;stroke-linejoin:miter;stroke-opacity:1" />
      <path
         sodipodi:nodetypes="ccccccccccccc"
         inkscape:connector-curvature="0"
         id="path5275"
         d="m 1341.9877,253.58406 c 33.9278,0.42955 34.0662,0.29107 41.374,0.43012 -0.1421,-8.57351 -0.06,-31.26418 0.2947,-41.59384 6.5649,-0.63434 14.5118,-0.40294 19.4454,0 0.3988,22.87462 -0.216,38.42402 10e-5,41.92133 12.2539,0.0236 31.6266,0.0593 42.1739,0.25254 0.3122,6.51266 0.3303,13.48231 0.2525,19.82425 0,0 -30.9359,0.43952 -42.0476,0.25253 -0.2617,9.49622 -0.5051,41.41626 -0.5051,41.41626 0,0 -13.0056,0.27751 -19.3191,-0.12627 -0.2524,-10.80629 0.4069,-33.05437 -0.3789,-41.6688 -6.8838,-0.19158 -32.2602,-0.2064 -41.3965,-0.26061 0.081,-11.16589 -0.3911,-0.0215 0.1066,-20.44751 z"
         style="fill:none;stroke:#000000;stroke-width:1px;stroke-linecap:butt;stroke-linejoin:miter;stroke-opacity:1" />
    </g>
    <path
       sodipodi:nodetypes="ssss"
       inkscape:connector-curvature="0"
       id="path5277"
       d="m 998.5714,147.71932 c -11.0112,11.08726 -9.3472,25.30713 -8.5714,40.71429 2.7662,54.93353 59.819,90.3614 87.1429,46.25 24.0413,-38.81204 -29.7348,-136.138266 -78.5715,-86.96429 z"
       style="fill:none;stroke:#000000;stroke-width:1px;stroke-linecap:butt;stroke-linejoin:miter;stroke-opacity:1" />
    <path
       sodipodi:nodetypes="csssssc"
       inkscape:connector-curvature="0"
       id="path5279"
       d="m 997.8924,320.7592 c -17.2843,0.5697 -36.8435,2.28327 -51.2651,6.31346 -9.7332,2.71996 -20.2372,5.0647 -27.2742,14.39467 -41.8174,55.44325 34.8368,87.25864 80.5597,79.29697 14.9108,-2.5964 25.7999,-5.77875 34.8502,-15.40482 13.8923,-14.77617 14.6202,-33.66559 4.8002,-48.92737 -9.8418,-15.29569 -29.044,-27.29184 -41.6708,-35.67291 z"
       style="fill:none;stroke:#000000;stroke-width:1px;stroke-linecap:butt;stroke-linejoin:miter;stroke-opacity:1" />
    <g
       id="g5877">
      <g
         transform="translate(-395.00894,-360.94109)"
         id="g4477">
        <path
           id="path4479"
           d="m 561.08036,418.81696 c -66.85818,0 -121.0625,54.17307 -121.0625,121.03125 0,66.85818 54.20432,121.0625 121.0625,121.0625 66.85818,0 121.0625,-54.20432 121.0625,-121.0625 0,-66.85818 -54.20432,-121.03125 -121.0625,-121.03125 z m 0,6.40625 c 63.3155,0 114.625,51.3095 114.625,114.625 0,63.3155 -51.3095,114.65625 -114.625,114.65625 -63.3155,0 -114.65625,-51.34075 -114.65625,-114.65625 0,-63.3155 51.34075,-114.625 114.65625,-114.625 z"
           style="fill:#dc9b3d;fill-opacity:1;stroke:none"
           inkscape:connector-curvature="0" />
        <path
           d="m 393.57142,250.57646 c 0,63.31551 -51.32736,114.64286 -114.64286,114.64286 -63.31551,0 -114.64286,-51.32735 -114.64286,-114.64286 0,-63.3155 51.32735,-114.64286 114.64286,-114.64286 63.3155,0 114.64286,51.32736 114.64286,114.64286 z"
           sodipodi:ry="114.64286"
           sodipodi:rx="114.64286"
           sodipodi:cy="250.57646"
           sodipodi:cx="278.92856"
           id="path4481"
           style="fill:#dc9b3d;fill-opacity:1;stroke:none"
           sodipodi:type="arc"
           transform="matrix(0.91296239,0,0,0.91296239,306.42908,311.09695)" />
      </g>
      <g
         style="fill:#ffffff;fill-opacity:1;stroke:none"
         transform="matrix(0.535891,0,0,0.535891,-516.268,27.36975)"
         id="g5288">
        <path
           inkscape:connector-curvature="0"
           id="path5290"
           d="m 1291.9688,117.65625 c -21.7726,0.0685 -45.6591,0.59797 -64.6563,2.375 -39.78,3.72106 -62.0101,31.65752 -66.4063,41.03125 -23.6375,50.4005 4.6044,88.15163 25,95.3125 16.6455,5.8442 21.1653,9.28255 50.0938,8.53125 -10.3571,26.38058 3.1525,32.37558 7.5,43.96875 -40.3231,0.98499 -79.5556,10.62061 -98.5,33.40625 -18.4565,22.19865 -23.3709,58.53728 7.6562,80.40625 29.6522,20.89973 69.2725,18.42517 102.625,14.53125 33.9336,-3.96173 68.2755,-33.23439 75.3438,-55.78125 9.7824,-31.20431 -0.9648,-51.48098 -21.375,-71.1875 -20.4102,-19.70652 -43.4237,-28.92879 -34.625,-48.125 3.1759,-6.92874 19.053,-14.51917 34.4062,-34.90625 8.5871,-11.40254 15.6743,-41.34355 7.9688,-56.90625 -7.0015,-14.14069 -10.9343,-21.27107 -25.3125,-33.5 7.811,0.13539 11.2111,-0.57219 25.25,-0.3125 11.0031,-7.59745 13.7083,-8.51486 26.9687,-18.46875 -10.5354,-0.0444 -30.1649,-0.4435 -51.9374,-0.375 z m -65.9376,16.5 c 38.8209,-1.1732 70.6586,68.99647 51.125,100.53125 -27.3239,44.1114 -84.39,8.68353 -87.1562,-46.25 -0.7758,-15.40716 -2.4487,-29.63149 8.5625,-40.71875 9.1569,-9.22012 18.5101,-13.29176 27.4687,-13.5625 z m 31.875,186.59375 c 12.6269,8.38107 31.8145,20.39181 41.6563,35.6875 9.82,15.26178 9.0798,34.16133 -4.8125,48.9375 -9.0503,9.62607 -19.9329,12.7786 -34.8438,15.375 -45.7228,7.96167 -122.3798,-23.838 -80.5624,-79.28125 7.037,-9.32997 17.548,-11.68629 27.2812,-14.40625 14.4216,-4.03019 33.9969,-5.7428 51.2812,-6.3125 z"
           style="fill:#ffffff;fill-opacity:1;stroke:none" />
        <path
           sodipodi:nodetypes="ccccccccccccc"
           inkscape:connector-curvature="0"
           id="path5292"
           d="m 1341.9877,253.58406 c 33.9278,0.42955 34.0662,0.29107 41.374,0.43012 -0.1421,-8.57351 -0.06,-31.26418 0.2947,-41.59384 6.5649,-0.63434 14.5118,-0.40294 19.4454,0 0.3988,22.87462 -0.216,38.42402 10e-5,41.92133 12.2539,0.0236 31.6266,0.0593 42.1739,0.25254 0.3122,6.51266 0.3303,13.48231 0.2525,19.82425 0,0 -30.9359,0.43952 -42.0476,0.25253 -0.2617,9.49622 -0.5051,41.41626 -0.5051,41.41626 0,0 -13.0056,0.27751 -19.3191,-0.12627 -0.2524,-10.80629 0.4069,-33.05437 -0.3789,-41.6688 -6.8838,-0.19158 -32.2602,-0.2064 -41.3965,-0.26061 0.081,-11.16589 -0.3911,-0.0215 0.1066,-20.44751 z"
           style="fill:#ffffff;fill-opacity:1;stroke:none" />
      </g>
    </g>
    <g
       id="g3067"
       inkscape:export-filename="\\www-deb\www\dev\projects\number_station\sources_graphic\g3.png"
       inkscape:export-xdpi="11.89"
       inkscape:export-ydpi="11.89">
      <g
         style="fill:#dd4b39;fill-opacity:1"
         id="g5887"
         transform="translate(-95.00894,-360.94109)">
        <path
           inkscape:connector-curvature="0"
           style="fill:#dd4b39;fill-opacity:1;stroke:none"
           d="m 561.08036,418.81696 c -66.85818,0 -121.0625,54.17307 -121.0625,121.03125 0,66.85818 54.20432,121.0625 121.0625,121.0625 66.85818,0 121.0625,-54.20432 121.0625,-121.0625 0,-66.85818 -54.20432,-121.03125 -121.0625,-121.03125 z m 0,6.40625 c 63.3155,0 114.625,51.3095 114.625,114.625 0,63.3155 -51.3095,114.65625 -114.625,114.65625 -63.3155,0 -114.65625,-51.34075 -114.65625,-114.65625 0,-63.3155 51.34075,-114.625 114.65625,-114.625 z"
           id="path5889" />
        <path
           transform="matrix(0.91296239,0,0,0.91296239,306.42908,311.09695)"
           sodipodi:type="arc"
           style="fill:#dd4b39;fill-opacity:1;stroke:none"
           id="path5891"
           sodipodi:cx="278.92856"
           sodipodi:cy="250.57646"
           sodipodi:rx="114.64286"
           sodipodi:ry="114.64286"
           d="m 393.57142,250.57646 c 0,63.31551 -51.32736,114.64286 -114.64286,114.64286 -63.31551,0 -114.64286,-51.32735 -114.64286,-114.64286 0,-63.3155 51.32735,-114.64286 114.64286,-114.64286 63.3155,0 114.64286,51.32736 114.64286,114.64286 z" />
      </g>
      <g
         id="g5893"
         transform="matrix(0.535891,0,0,0.535891,-216.268,27.36975)"
         style="fill:#ffffff;fill-opacity:1;stroke:none">
        <path
           style="fill:#ffffff;fill-opacity:1;stroke:none"
           d="m 1291.9688,117.65625 c -21.7726,0.0685 -45.6591,0.59797 -64.6563,2.375 -39.78,3.72106 -62.0101,31.65752 -66.4063,41.03125 -23.6375,50.4005 4.6044,88.15163 25,95.3125 16.6455,5.8442 21.1653,9.28255 50.0938,8.53125 -10.3571,26.38058 3.1525,32.37558 7.5,43.96875 -40.3231,0.98499 -79.5556,10.62061 -98.5,33.40625 -18.4565,22.19865 -23.3709,58.53728 7.6562,80.40625 29.6522,20.89973 69.2725,18.42517 102.625,14.53125 33.9336,-3.96173 68.2755,-33.23439 75.3438,-55.78125 9.7824,-31.20431 -0.9648,-51.48098 -21.375,-71.1875 -20.4102,-19.70652 -43.4237,-28.92879 -34.625,-48.125 3.1759,-6.92874 19.053,-14.51917 34.4062,-34.90625 8.5871,-11.40254 15.6743,-41.34355 7.9688,-56.90625 -7.0015,-14.14069 -10.9343,-21.27107 -25.3125,-33.5 7.811,0.13539 11.2111,-0.57219 25.25,-0.3125 11.0031,-7.59745 13.7083,-8.51486 26.9687,-18.46875 -10.5354,-0.0444 -30.1649,-0.4435 -51.9374,-0.375 z m -65.9376,16.5 c 38.8209,-1.1732 70.6586,68.99647 51.125,100.53125 -27.3239,44.1114 -84.39,8.68353 -87.1562,-46.25 -0.7758,-15.40716 -2.4487,-29.63149 8.5625,-40.71875 9.1569,-9.22012 18.5101,-13.29176 27.4687,-13.5625 z m 31.875,186.59375 c 12.6269,8.38107 31.8145,20.39181 41.6563,35.6875 9.82,15.26178 9.0798,34.16133 -4.8125,48.9375 -9.0503,9.62607 -19.9329,12.7786 -34.8438,15.375 -45.7228,7.96167 -122.3798,-23.838 -80.5624,-79.28125 7.037,-9.32997 17.548,-11.68629 27.2812,-14.40625 14.4216,-4.03019 33.9969,-5.7428 51.2812,-6.3125 z"
           id="path5895"
           inkscape:connector-curvature="0" />
        <path
           style="fill:#ffffff;fill-opacity:1;stroke:none"
           d="m 1341.9877,253.58406 c 33.9278,0.42955 34.0662,0.29107 41.374,0.43012 -0.1421,-8.57351 -0.06,-31.26418 0.2947,-41.59384 6.5649,-0.63434 14.5118,-0.40294 19.4454,0 0.3988,22.87462 -0.216,38.42402 10e-5,41.92133 12.2539,0.0236 31.6266,0.0593 42.1739,0.25254 0.3122,6.51266 0.3303,13.48231 0.2525,19.82425 0,0 -30.9359,0.43952 -42.0476,0.25253 -0.2617,9.49622 -0.5051,41.41626 -0.5051,41.41626 0,0 -13.0056,0.27751 -19.3191,-0.12627 -0.2524,-10.80629 0.4069,-33.05437 -0.3789,-41.6688 -6.8838,-0.19158 -32.2602,-0.2064 -41.3965,-0.26061 0.081,-11.16589 -0.3911,-0.0215 0.1066,-20.44751 z"
           id="path5897"
           inkscape:connector-curvature="0"
           sodipodi:nodetypes="ccccccccccccc" />
      </g>
    </g>
    <g
       id="g4977"
       inkscape:export-filename="\\www-deb\www\dev\projects\number_station\sources_graphic\g.png"
       inkscape:export-xdpi="11.89"
       inkscape:export-ydpi="11.89">
      <g
         style="fill:#8e9d9f;fill-opacity:1"
         id="g4451"
         transform="translate(-395.00894,-80.94109)">
        <path
           inkscape:connector-curvature="0"
           style="fill:#8e9d9f;fill-opacity:1;stroke:none"
           d="m 561.08036,418.81696 c -66.85818,0 -121.0625,54.17307 -121.0625,121.03125 0,66.85818 54.20432,121.0625 121.0625,121.0625 66.85818,0 121.0625,-54.20432 121.0625,-121.0625 0,-66.85818 -54.20432,-121.03125 -121.0625,-121.03125 z m 0,6.40625 c 63.3155,0 114.625,51.3095 114.625,114.625 0,63.3155 -51.3095,114.65625 -114.625,114.65625 -63.3155,0 -114.65625,-51.34075 -114.65625,-114.65625 0,-63.3155 51.34075,-114.625 114.65625,-114.625 z"
           id="path4453" />
        <path
           transform="matrix(0.91296239,0,0,0.91296239,306.42908,311.09695)"
           sodipodi:type="arc"
           style="fill:#8e9d9f;fill-opacity:1;stroke:none"
           id="path4455"
           sodipodi:cx="278.92856"
           sodipodi:cy="250.57646"
           sodipodi:rx="114.64286"
           sodipodi:ry="114.64286"
           d="m 393.57142,250.57646 c 0,63.31551 -51.32736,114.64286 -114.64286,114.64286 -63.31551,0 -114.64286,-51.32735 -114.64286,-114.64286 0,-63.3155 51.32735,-114.64286 114.64286,-114.64286 63.3155,0 114.64286,51.32736 114.64286,114.64286 z" />
      </g>
      <g
         id="g4457"
         transform="matrix(0.535891,0,0,0.535891,-516.268,307.36975)"
         style="fill:#ffffff;fill-opacity:1;stroke:none">
        <path
           style="fill:#ffffff;fill-opacity:1;stroke:none"
           d="m 1291.9688,117.65625 c -21.7726,0.0685 -45.6591,0.59797 -64.6563,2.375 -39.78,3.72106 -62.0101,31.65752 -66.4063,41.03125 -23.6375,50.4005 4.6044,88.15163 25,95.3125 16.6455,5.8442 21.1653,9.28255 50.0938,8.53125 -10.3571,26.38058 3.1525,32.37558 7.5,43.96875 -40.3231,0.98499 -79.5556,10.62061 -98.5,33.40625 -18.4565,22.19865 -23.3709,58.53728 7.6562,80.40625 29.6522,20.89973 69.2725,18.42517 102.625,14.53125 33.9336,-3.96173 68.2755,-33.23439 75.3438,-55.78125 9.7824,-31.20431 -0.9648,-51.48098 -21.375,-71.1875 -20.4102,-19.70652 -43.4237,-28.92879 -34.625,-48.125 3.1759,-6.92874 19.053,-14.51917 34.4062,-34.90625 8.5871,-11.40254 15.6743,-41.34355 7.9688,-56.90625 -7.0015,-14.14069 -10.9343,-21.27107 -25.3125,-33.5 7.811,0.13539 11.2111,-0.57219 25.25,-0.3125 11.0031,-7.59745 13.7083,-8.51486 26.9687,-18.46875 -10.5354,-0.0444 -30.1649,-0.4435 -51.9374,-0.375 z m -65.9376,16.5 c 38.8209,-1.1732 70.6586,68.99647 51.125,100.53125 -27.3239,44.1114 -84.39,8.68353 -87.1562,-46.25 -0.7758,-15.40716 -2.4487,-29.63149 8.5625,-40.71875 9.1569,-9.22012 18.5101,-13.29176 27.4687,-13.5625 z m 31.875,186.59375 c 12.6269,8.38107 31.8145,20.39181 41.6563,35.6875 9.82,15.26178 9.0798,34.16133 -4.8125,48.9375 -9.0503,9.62607 -19.9329,12.7786 -34.8438,15.375 -45.7228,7.96167 -122.3798,-23.838 -80.5624,-79.28125 7.037,-9.32997 17.548,-11.68629 27.2812,-14.40625 14.4216,-4.03019 33.9969,-5.7428 51.2812,-6.3125 z"
           id="path4459"
           inkscape:connector-curvature="0" />
        <path
           style="fill:#ffffff;fill-opacity:1;stroke:none"
           d="m 1341.9877,253.58406 c 33.9278,0.42955 34.0662,0.29107 41.374,0.43012 -0.1421,-8.57351 -0.06,-31.26418 0.2947,-41.59384 6.5649,-0.63434 14.5118,-0.40294 19.4454,0 0.3988,22.87462 -0.216,38.42402 10e-5,41.92133 12.2539,0.0236 31.6266,0.0593 42.1739,0.25254 0.3122,6.51266 0.3303,13.48231 0.2525,19.82425 0,0 -30.9359,0.43952 -42.0476,0.25253 -0.2617,9.49622 -0.5051,41.41626 -0.5051,41.41626 0,0 -13.0056,0.27751 -19.3191,-0.12627 -0.2524,-10.80629 0.4069,-33.05437 -0.3789,-41.6688 -6.8838,-0.19158 -32.2602,-0.2064 -41.3965,-0.26061 0.081,-11.16589 -0.3911,-0.0215 0.1066,-20.44751 z"
           id="path4461"
           inkscape:connector-curvature="0"
           sodipodi:nodetypes="ccccccccccccc" />
      </g>
    </g>
  </g>
</svg>
