<?xml version="1.0" encoding="UTF-8" standalone="no"?>
<!-- Created with Inkscape (http://www.inkscape.org/) -->

<svg
   xmlns:dc="http://purl.org/dc/elements/1.1/"
   xmlns:cc="http://creativecommons.org/ns#"
   xmlns:rdf="http://www.w3.org/1999/02/22-rdf-syntax-ns#"
   xmlns:svg="http://www.w3.org/2000/svg"
   xmlns="http://www.w3.org/2000/svg"
   xmlns:xlink="http://www.w3.org/1999/xlink"
   xmlns:sodipodi="http://sodipodi.sourceforge.net/DTD/sodipodi-0.dtd"
   xmlns:inkscape="http://www.inkscape.org/namespaces/inkscape"
   width="744.09448819"
   height="1052.3622047"
   id="svg4614"
   version="1.1"
   inkscape:version="0.48.4 r9939"
   sodipodi:docname="pinterest_logo.svg"
   inkscape:export-filename="C:\Users\milos\Desktop\pinterest_logo.png"
   inkscape:export-xdpi="95.160004"
   inkscape:export-ydpi="95.160004">
  <defs
     id="defs4616" />
  <sodipodi:namedview
     id="base"
     pagecolor="#ffffff"
     bordercolor="#666666"
     borderopacity="1.0"
     inkscape:pageopacity="0.0"
     inkscape:pageshadow="2"
     inkscape:zoom="1.4142136"
     inkscape:cx="97.935185"
     inkscape:cy="624.65621"
     inkscape:document-units="px"
     inkscape:current-layer="layer1"
     showgrid="false"
     inkscape:window-width="1366"
     inkscape:window-height="684"
     inkscape:window-x="-8"
     inkscape:window-y="-8"
     inkscape:window-maximized="1" />
  <metadata
     id="metadata4619">
    <rdf:RDF>
      <cc:Work
         rdf:about="">
        <dc:format>image/svg+xml</dc:format>
        <dc:type
           rdf:resource="http://purl.org/dc/dcmitype/StillImage" />
        <dc:title></dc:title>
      </cc:Work>
    </rdf:RDF>
  </metadata>
  <g
     inkscape:label="Layer 1"
     inkscape:groupmode="layer"
     id="layer1">
    <image
       y="118.00504"
       x="928.5"
       id="image4630"
       xlink:href="file:///C:/Users/milos/Desktop/pinterest-logo.png"
       height="1143"
       width="1143" />
    <path
       style="fill:none;stroke:#000000;stroke-width:1px;stroke-linecap:butt;stroke-linejoin:miter;stroke-opacity:1"
       d="m 1270.5858,1213.1906 c -3.2993,-97.142 13.255,-148.6977 33.1507,-227.87867 13.726,-54.62637 38.4611,-167.94788 51.0919,-215.03301 -20.6091,-59.79505 -29.7901,-95.48991 -6.8284,-153.91674 23.7229,-60.36366 57.2158,-83.25294 99.0207,-82.55025 49.6258,0.83416 64.0502,25.51351 74.9793,60.55025 25.4494,81.58604 -99.3695,239.41734 -25.7157,309.53553 29.6267,28.20456 54.7949,37.42713 108.5649,21.27208 141.2111,-42.42641 229.0953,-437.97926 -3.7781,-504.56497 -209.945,-60.02973 -357.2735,86.46145 -371.0503,204.86649 -1.616,13.88853 -9.3633,53.95282 -2.4533,89.91788 6.91,35.96506 37.6939,72.877 44.4786,96.43522 -3.7744,30.20845 -9.7749,69.54593 -23.5661,76.15904 -7.6772,3.68134 -18.9876,1.29103 -30.1727,-7.54503 C 1210.1934,874.02851 1188.548,868.85359 1172,846.36218 1053.9579,685.92386 1123.4846,476.08964 1281.7579,377.27376 1397.0138,305.3153 1654.3943,246.85212 1820,447.36218 c 133.7022,161.88228 48.2998,480.91484 -120,555.00002 -183.01,80.5606 -254.3032,-31.83707 -264.8076,-43.15078 -5.0104,24.54609 -41.883,211.13548 -96.4363,279.83648 -47.4823,-18.2732 -3.0437,-1.6996 -68.1703,-25.8573 z"
       id="path4635"
       inkscape:connector-curvature="0"
       sodipodi:nodetypes="cscsssssssscssssssccc" />
    <g
       id="g5222"
       inkscape:export-filename="C:\Users\milos\Desktop\pinterest_logo_prim.png"
       inkscape:export-xdpi="95.160004"
       inkscape:export-ydpi="95.160004">
      <g
         transform="translate(-380.15176,-337.79823)"
         id="g4477">
        <path
           id="path4479"
           d="m 561.08036,418.81696 c -66.85818,0 -121.0625,54.17307 -121.0625,121.03125 0,66.85818 54.20432,121.0625 121.0625,121.0625 66.85818,0 121.0625,-54.20432 121.0625,-121.0625 0,-66.85818 -54.20432,-121.03125 -121.0625,-121.03125 z m 0,6.40625 c 63.3155,0 114.625,51.3095 114.625,114.625 0,63.3155 -51.3095,114.65625 -114.625,114.65625 -63.3155,0 -114.65625,-51.34075 -114.65625,-114.65625 0,-63.3155 51.34075,-114.625 114.65625,-114.625 z"
           style="fill:#dc9b3d;fill-opacity:1;stroke:none"
           inkscape:connector-curvature="0" />
        <path
           d="m 393.57142,250.57646 c 0,63.31551 -51.32736,114.64286 -114.64286,114.64286 -63.31551,0 -114.64286,-51.32735 -114.64286,-114.64286 0,-63.3155 51.32735,-114.64286 114.64286,-114.64286 63.3155,0 114.64286,51.32736 114.64286,114.64286 z"
           sodipodi:ry="114.64286"
           sodipodi:rx="114.64286"
           sodipodi:cy="250.57646"
           sodipodi:cx="278.92856"
           id="path4481"
           style="fill:#dc9b3d;fill-opacity:1;stroke:none"
           sodipodi:type="arc"
           transform="matrix(0.91296239,0,0,0.91296239,306.42908,311.09695)" />
      </g>
      <path
         style="fill:#ffffff;fill-opacity:1;stroke:none"
         d="m 132.14941,295.63472 c -0.70353,-20.72313 2.82789,-31.72149 7.0722,-48.61263 2.92813,-11.65338 8.20466,-35.82783 10.89928,-45.87247 -4.39664,-12.75572 -6.35498,-20.37031 -1.45684,-32.83452 5.06069,-12.8771 12.2056,-17.75998 21.12385,-17.60997 10.58656,0.17799 13.66368,5.44273 15.99503,12.91699 5.42928,17.40436 -21.19806,51.07411 -5.48572,66.03232 6.32011,6.01656 11.68898,7.98385 23.15964,4.53777 30.12419,-9.05094 48.87216,-93.4326 -0.80579,-107.63709 -44.78695,-12.8061 -76.21591,18.44439 -79.15499,43.70325 -0.34475,2.96279 -1.99754,11.50965 -0.52345,19.18192 1.47409,7.6722 8.04122,15.54671 9.48836,20.57209 -0.8049,6.44449 -2.08506,14.83614 -5.02692,16.2468 -1.63784,0.78536 -4.05075,0.27557 -6.43657,-1.60947 -1.73102,-1.36755 -6.34857,-2.47142 -9.87876,-7.26936 -25.181591,-34.22571 -10.34959,-78.98899 23.41437,-100.06888 24.58689,-15.35076 79.49322,-27.82249 114.82129,14.95144 28.52199,34.53377 10.3034,102.59206 -25.59923,118.39631 -39.04107,17.18592 -54.24976,-6.79172 -56.49078,-9.205 -1.06857,5.23629 -8.93456,45.04076 -20.57228,59.69655 -10.12929,-3.89824 -0.64919,-0.36279 -14.54269,-5.51605 z"
         id="path4637"
         inkscape:connector-curvature="0"
         sodipodi:nodetypes="cscsssssssscssssssccc" />
    </g>
    <g
       id="g5242"
       inkscape:export-filename="C:\Users\milos\Desktop\pinterest_logo_brand.png"
       inkscape:export-xdpi="95.160004"
       inkscape:export-ydpi="95.160004">
      <g
         id="g5230"
         transform="translate(-80.15176,-337.79823)"
         style="fill:#cb2027;fill-opacity:1">
        <path
           inkscape:connector-curvature="0"
           style="fill:#cb2027;fill-opacity:1;stroke:none"
           d="m 561.08036,418.81696 c -66.85818,0 -121.0625,54.17307 -121.0625,121.03125 0,66.85818 54.20432,121.0625 121.0625,121.0625 66.85818,0 121.0625,-54.20432 121.0625,-121.0625 0,-66.85818 -54.20432,-121.03125 -121.0625,-121.03125 z m 0,6.40625 c 63.3155,0 114.625,51.3095 114.625,114.625 0,63.3155 -51.3095,114.65625 -114.625,114.65625 -63.3155,0 -114.65625,-51.34075 -114.65625,-114.65625 0,-63.3155 51.34075,-114.625 114.65625,-114.625 z"
           id="path5232" />
        <path
           transform="matrix(0.91296239,0,0,0.91296239,306.42908,311.09695)"
           sodipodi:type="arc"
           style="fill:#cb2027;fill-opacity:1;stroke:none"
           id="path5234"
           sodipodi:cx="278.92856"
           sodipodi:cy="250.57646"
           sodipodi:rx="114.64286"
           sodipodi:ry="114.64286"
           d="m 393.57142,250.57646 c 0,63.31551 -51.32736,114.64286 -114.64286,114.64286 -63.31551,0 -114.64286,-51.32735 -114.64286,-114.64286 0,-63.3155 51.32735,-114.64286 114.64286,-114.64286 63.3155,0 114.64286,51.32736 114.64286,114.64286 z" />
      </g>
      <path
         sodipodi:nodetypes="cscsssssssscssssssccc"
         inkscape:connector-curvature="0"
         id="path5236"
         d="m 432.14941,295.63472 c -0.70353,-20.72313 2.82789,-31.72149 7.0722,-48.61263 2.92813,-11.65338 8.20466,-35.82783 10.89928,-45.87247 -4.39664,-12.75572 -6.35498,-20.37031 -1.45684,-32.83452 5.06069,-12.8771 12.2056,-17.75998 21.12385,-17.60997 10.58656,0.17799 13.66368,5.44273 15.99503,12.91699 5.42928,17.40436 -21.19806,51.07411 -5.48572,66.03232 6.32011,6.01656 11.68898,7.98385 23.15964,4.53777 30.12419,-9.05094 48.87216,-93.4326 -0.80579,-107.63709 -44.78695,-12.8061 -76.21591,18.44439 -79.15499,43.70325 -0.34475,2.96279 -1.99754,11.50965 -0.52345,19.18192 1.47409,7.6722 8.04122,15.54671 9.48836,20.57209 -0.8049,6.44449 -2.08506,14.83614 -5.02692,16.2468 -1.63784,0.78536 -4.05075,0.27557 -6.43657,-1.60947 -1.73102,-1.36755 -6.34857,-2.47142 -9.87876,-7.26936 -25.18159,-34.22571 -10.34959,-78.98899 23.41437,-100.06888 24.58689,-15.35076 79.49322,-27.82249 114.82129,14.95144 28.52199,34.53377 10.3034,102.59206 -25.59923,118.39631 -39.04107,17.18592 -54.24976,-6.79172 -56.49078,-9.205 -1.06857,5.23629 -8.93456,45.04076 -20.57228,59.69655 -10.12929,-3.89824 -0.64919,-0.36279 -14.54269,-5.51605 z"
         style="fill:#ffffff;fill-opacity:1;stroke:none" />
    </g>
    <g
       id="g5541"
       inkscape:export-filename="\\www-deb\www\dev\projects\number_station\sources_graphic\pin.png"
       inkscape:export-xdpi="11.89"
       inkscape:export-ydpi="11.89">
      <g
         style="fill:#8e9d9f;fill-opacity:1"
         id="g5021"
         transform="translate(-380.15176,-77.79823)">
        <path
           inkscape:connector-curvature="0"
           style="fill:#8e9d9f;fill-opacity:1;stroke:none"
           d="m 561.08036,418.81696 c -66.85818,0 -121.0625,54.17307 -121.0625,121.03125 0,66.85818 54.20432,121.0625 121.0625,121.0625 66.85818,0 121.0625,-54.20432 121.0625,-121.0625 0,-66.85818 -54.20432,-121.03125 -121.0625,-121.03125 z m 0,6.40625 c 63.3155,0 114.625,51.3095 114.625,114.625 0,63.3155 -51.3095,114.65625 -114.625,114.65625 -63.3155,0 -114.65625,-51.34075 -114.65625,-114.65625 0,-63.3155 51.34075,-114.625 114.65625,-114.625 z"
           id="path5023" />
        <path
           transform="matrix(0.91296239,0,0,0.91296239,306.42908,311.09695)"
           sodipodi:type="arc"
           style="fill:#8e9d9f;fill-opacity:1;stroke:none"
           id="path5025"
           sodipodi:cx="278.92856"
           sodipodi:cy="250.57646"
           sodipodi:rx="114.64286"
           sodipodi:ry="114.64286"
           d="m 393.57142,250.57646 c 0,63.31551 -51.32736,114.64286 -114.64286,114.64286 -63.31551,0 -114.64286,-51.32735 -114.64286,-114.64286 0,-63.3155 51.32735,-114.64286 114.64286,-114.64286 63.3155,0 114.64286,51.32736 114.64286,114.64286 z" />
      </g>
      <path
         sodipodi:nodetypes="cscsssssssscssssssccc"
         inkscape:connector-curvature="0"
         id="path5027"
         d="m 132.14941,555.63472 c -0.70353,-20.72313 2.82789,-31.72149 7.0722,-48.61263 2.92813,-11.65338 8.20466,-35.82783 10.89928,-45.87247 -4.39664,-12.75572 -6.35498,-20.37031 -1.45684,-32.83452 5.06069,-12.8771 12.2056,-17.75998 21.12385,-17.60997 10.58656,0.17799 13.66368,5.44273 15.99503,12.91699 5.42928,17.40436 -21.19806,51.07411 -5.48572,66.03232 6.32011,6.01656 11.68898,7.98385 23.15964,4.53777 30.12419,-9.05094 48.87216,-93.4326 -0.80579,-107.63709 -44.78695,-12.8061 -76.21591,18.44439 -79.15499,43.70325 -0.34475,2.96279 -1.99754,11.50965 -0.52345,19.18192 1.47409,7.6722 8.04122,15.54671 9.48836,20.57209 -0.8049,6.44449 -2.08506,14.83614 -5.02692,16.2468 -1.63784,0.78536 -4.05075,0.27557 -6.43657,-1.60947 -1.73102,-1.36755 -6.34857,-2.47142 -9.87876,-7.26936 -25.181591,-34.22571 -10.34959,-78.98899 23.41437,-100.06888 24.58689,-15.35076 79.49322,-27.82249 114.82129,14.95144 28.52199,34.53377 10.3034,102.59206 -25.59923,118.39631 -39.04107,17.18592 -54.24976,-6.79172 -56.49078,-9.205 -1.06857,5.23629 -8.93456,45.04076 -20.57228,59.69655 -10.12929,-3.89824 -0.64919,-0.36279 -14.54269,-5.51605 z"
         style="fill:#ffffff;fill-opacity:1;stroke:none" />
    </g>
  </g>
</svg>
