<?xml version="1.0" encoding="UTF-8" standalone="no"?>
<!-- Created with Inkscape (http://www.inkscape.org/) -->

<svg
   xmlns:dc="http://purl.org/dc/elements/1.1/"
   xmlns:cc="http://creativecommons.org/ns#"
   xmlns:rdf="http://www.w3.org/1999/02/22-rdf-syntax-ns#"
   xmlns:svg="http://www.w3.org/2000/svg"
   xmlns="http://www.w3.org/2000/svg"
   xmlns:xlink="http://www.w3.org/1999/xlink"
   xmlns:sodipodi="http://sodipodi.sourceforge.net/DTD/sodipodi-0.dtd"
   xmlns:inkscape="http://www.inkscape.org/namespaces/inkscape"
   width="744.09448819"
   height="1052.3622047"
   id="svg2"
   version="1.1"
   inkscape:version="0.48.4 r9939"
   sodipodi:docname="stumbleupon_logo.svg">
  <defs
     id="defs4" />
  <sodipodi:namedview
     id="base"
     pagecolor="#ffffff"
     bordercolor="#666666"
     borderopacity="1.0"
     inkscape:pageopacity="0.0"
     inkscape:pageshadow="2"
     inkscape:zoom="0.98994949"
     inkscape:cx="498.21255"
     inkscape:cy="541.63884"
     inkscape:document-units="px"
     inkscape:current-layer="layer1"
     showgrid="false"
     inkscape:window-width="1366"
     inkscape:window-height="684"
     inkscape:window-x="-8"
     inkscape:window-y="-8"
     inkscape:window-maximized="1" />
  <metadata
     id="metadata7">
    <rdf:RDF>
      <cc:Work
         rdf:about="">
        <dc:format>image/svg+xml</dc:format>
        <dc:type
           rdf:resource="http://purl.org/dc/dcmitype/StillImage" />
        <dc:title></dc:title>
      </cc:Work>
    </rdf:RDF>
  </metadata>
  <g
     inkscape:label="Layer 1"
     inkscape:groupmode="layer"
     id="layer1">
    <image
       y="-23.637827"
       x="895.42859"
       id="image2993"
       xlink:href="file:///C:/Users/milos/Desktop/official_stumbleupon_logo_round_stickers-rf1c62ff2602a41eab5a542acdf59f693_v9waf_8byvr_512.jpg"
       height="512"
       width="512" />
    <path
       style="fill:none;stroke:#000000;stroke-width:1px;stroke-linecap:butt;stroke-linejoin:miter;stroke-opacity:1"
       d="m 967.85714,283.74743 c 13.47151,-0.28455 25.81112,-0.67096 38.57146,-0.67096 11.5361,0 48.5194,1.02828 63.7968,0.33176 15.5211,-1.51523 18.4799,-23.47338 13.0935,-28.10225 -18.8306,-6.49505 -100.97822,-13.60558 -87.7346,-64.08394 3.77479,-14.3877 6.9647,-24.35262 16.9411,-34.32904 9.5375,-9.5375 18.7658,-13.92115 30.9235,-17.47462 41.5342,-2.83693 134.3518,-2.02599 136.7096,0.33176 37.3621,24.23015 29.9641,61.82633 29.9641,99.04061 0,21.28347 -4.5858,49.68019 39.8774,45 14.3833,-3.26318 17.2106,-12.65645 17.1275,-36.28356 -0.079,-22.32086 0.2245,-60.30367 0.7296,-90.85929 0,-7.29238 -1.3454,-53.97612 -0.9742,-73.614761 15.2404,7.62019 32.1028,32.766271 42.4028,44.329041 -0.2244,12.21042 0.049,23.20778 0,27.85714 -0.2525,23.92347 0.6753,90.40114 0.3751,119.28572 -12.8645,25.7289 -16.1521,33.42578 -41.2193,44.94924 -9.7416,4.47823 -23.3599,7.32191 -35.2018,5.17331 -52.1949,-9.47018 -55.9654,-28.91036 -62.4103,-53.62802 -6.2605,-24.01087 5.8814,-57.44148 -7.0488,-87.41802 -13.4121,-8.61395 -33.3139,-7.30874 -51.3852,-7.30874 -25.0973,0 -51.3507,-3.36154 -68.824,5.37509 -14.9866,15.06944 -3.6218,24.85004 23.0913,28.58284 20.5078,2.86568 40.2376,7.98379 45.4802,18.56001 18.4144,15.76443 12.0986,65.2101 0.8801,75.41842 -4.065,3.69892 -8.9363,13.11529 -35.6931,16.88886 -29.3435,4.13838 -65.616,2.08914 -94.47276,0.75907 -4.68106,-8.2166 -12.26986,-27.18913 -15,-38.10967 z"
       id="path2996"
       inkscape:connector-curvature="0"
       sodipodi:nodetypes="csccssccscscccscssscscscsscc" />
    <g
       id="g3875">
      <g
         style="fill:#dc9b3d;fill-opacity:1"
         transform="translate(-375.72322,-333.79824)"
         id="g4477">
        <path
           id="path4479"
           d="m 561.08036,418.81696 c -66.85818,0 -121.0625,54.17307 -121.0625,121.03125 0,66.85818 54.20432,121.0625 121.0625,121.0625 66.85818,0 121.0625,-54.20432 121.0625,-121.0625 0,-66.85818 -54.20432,-121.03125 -121.0625,-121.03125 z m 0,6.40625 c 63.3155,0 114.625,51.3095 114.625,114.625 0,63.3155 -51.3095,114.65625 -114.625,114.65625 -63.3155,0 -114.65625,-51.34075 -114.65625,-114.65625 0,-63.3155 51.34075,-114.625 114.65625,-114.625 z"
           style="fill:#dc9b3d;fill-opacity:1;stroke:none"
           inkscape:connector-curvature="0" />
        <path
           d="m 393.57142,250.57646 c 0,63.31551 -51.32736,114.64286 -114.64286,114.64286 -63.31551,0 -114.64286,-51.32735 -114.64286,-114.64286 0,-63.3155 51.32735,-114.64286 114.64286,-114.64286 63.3155,0 114.64286,51.32736 114.64286,114.64286 z"
           sodipodi:ry="114.64286"
           sodipodi:rx="114.64286"
           sodipodi:cy="250.57646"
           sodipodi:cx="278.92856"
           id="path4481"
           style="fill:#dc9b3d;fill-opacity:1;stroke:none"
           sodipodi:type="arc"
           transform="matrix(0.91296239,0,0,0.91296239,306.42908,311.09695)" />
      </g>
      <path
         style="fill:#ffffff;fill-opacity:1;stroke:none"
         d="m 84.276235,239.24674 c 7.65127,-0.16148 14.659535,-0.38111 21.906735,-0.38111 6.55197,0 27.55642,0.58413 36.23351,0.18866 8.81507,-0.86061 10.49552,-13.33201 7.4365,-15.96089 -10.69512,-3.6889 -57.35063,-7.72715 -49.82908,-36.39643 2.14391,-8.17136 3.95575,-13.83118 9.62167,-19.49711 5.41697,-5.41701 10.65817,-7.90669 17.56318,-9.92476 23.58916,-1.61126 76.30511,-1.15062 77.64405,0.18862 21.21975,13.76142 17.01835,35.11406 17.01835,56.24981 0,12.08809 -2.60446,28.21618 22.64815,25.55803 8.16891,-1.85358 9.7748,-7.18846 9.72769,-20.6072 -0.0442,-12.67732 0.12749,-34.24974 0.4144,-51.60364 0,-4.1417 -0.76404,-30.65579 -0.55342,-41.80952 8.65582,4.32787 18.23296,18.60955 24.08285,25.17672 -0.12746,6.93484 0.0268,13.18069 0,15.82133 -0.14358,13.58734 0.38351,51.3433 0.21281,67.7482 -7.30631,14.61278 -9.17338,18.98417 -23.41041,25.52903 -5.53269,2.54336 -13.26741,4.15834 -19.99284,2.93828 -29.64441,-5.37856 -31.78551,-16.41957 -35.44599,-30.45818 -3.55572,-13.637 3.34043,-32.62376 -4.00339,-49.64893 -7.61726,-4.89235 -18.92037,-4.15113 -29.1842,-4.15113 -14.25388,0 -29.16454,-1.9091 -39.08853,3.05289 -8.51167,8.55857 -2.05709,14.11343 13.11475,16.23368 11.64709,1.62735 22.85283,4.53449 25.83029,10.54105 10.4587,8.95364 6.87159,37.03617 0.50002,42.83388 -2.30885,2.10098 -5.07523,7.449 -20.27206,9.59214 -16.66563,2.3504 -37.26644,1.18647 -53.65574,0.4311 -2.65856,-4.66656 -6.968435,-15.44214 -8.519295,-21.64452 z"
         id="path2998"
         inkscape:connector-curvature="0"
         sodipodi:nodetypes="csccssccscscccscssscscscsscc" />
    </g>
    <rect
       style="fill:#1dad56;fill-opacity:1;stroke:none"
       id="rect3859"
       width="197.48482"
       height="87.378197"
       x="866.71088"
       y="498.79858" />
    <rect
       style="fill:#0176bc;fill-opacity:1;stroke:none"
       id="rect3861"
       width="197.48482"
       height="74.751289"
       x="867.21594"
       y="621.02704" />
    <text
       xml:space="preserve"
       style="font-size:40px;font-style:normal;font-weight:normal;line-height:125%;letter-spacing:0px;word-spacing:0px;fill:#000000;fill-opacity:1;stroke:none;font-family:Sans"
       x="1116.2186"
       y="645.77576"
       id="text3863"
       sodipodi:linespacing="125%"><tspan
         sodipodi:role="line"
         id="tspan3865"
         x="1116.2186"
         y="645.77576">0176bc</tspan></text>
    <text
       xml:space="preserve"
       style="font-size:40px;font-style:normal;font-weight:normal;line-height:125%;letter-spacing:0px;word-spacing:0px;fill:#000000;fill-opacity:1;stroke:none;font-family:Sans"
       x="1112.683"
       y="538.69958"
       id="text3867"
       sodipodi:linespacing="125%"><tspan
         sodipodi:role="line"
         id="tspan3869"
         x="1112.683"
         y="538.69958">1dad56</tspan></text>
    <g
       id="g3927">
      <path
         id="path3913"
         d="M 525.34375 101.40625 C 467.53908 101.40625 420.6875 148.25783 420.6875 206.0625 C 420.6875 223.11471 424.79744 239.21218 432.03125 253.4375 C 438.70875 254.26158 448.27004 256.60496 451.03125 253.84375 C 458.88766 245.98734 486.20653 253.51222 499 240.71875 C 523.38866 216.33009 433.10616 201.08134 455.59375 178.59375 C 460.61082 173.57667 470.76767 168.96875 480.84375 168.96875 C 494.38586 168.96875 532.50929 162.0718 541.9375 171.5 C 558.03009 187.59259 542.3587 238.3981 566.1875 250.3125 C 619.62859 277.03304 599.4626 163.02793 606.09375 139.4375 C 586.89635 116.20603 557.8346 101.40625 525.34375 101.40625 z "
         style="fill:#1dad56;fill-opacity:1;stroke:none" />
      <path
         inkscape:connector-curvature="0"
         id="path3887"
         d="m 605.5625,138.84375 c 0.34477,21.10805 -4.05386,98.86637 -4.53125,99.34375 -6.05922,6.05923 -15.50724,10.37741 -25.25,13.625 -23.73217,7.91072 -20.85433,-54.83365 -28.28125,-69.6875 -7.88574,-15.77148 -56.3517,-18.24735 -73.21875,-12.625 -8.8351,2.94503 -15.26,11.19751 -20.71875,16.65625 -13.35173,13.35174 68.95998,32.54002 47.46875,54.03125 -13.61223,13.61223 -46.97257,10.32921 -70.15625,11 16.85281,35.21591 52.8225,59.53125 94.46875,59.53125 57.80467,0 104.6875,-46.85158 104.6875,-104.65625 0,-25.59824 -9.2086,-49.03223 -24.46875,-67.21875 z"
         style="fill:#0176bc;fill-opacity:1;stroke:none" />
      <path
         sodipodi:nodetypes="csccssccscscccscssscscscsscc"
         inkscape:connector-curvature="0"
         id="path3889"
         d="m 424.27623,239.24674 c 7.65127,-0.16148 14.65954,-0.38111 21.90674,-0.38111 6.55197,0 27.55642,0.58413 36.23351,0.18866 8.81507,-0.86061 10.49552,-13.33201 7.4365,-15.96089 -10.69512,-3.6889 -57.35063,-7.72715 -49.82908,-36.39643 2.14391,-8.17136 3.95575,-13.83118 9.62167,-19.49711 5.41697,-5.41701 10.65817,-7.90669 17.56318,-9.92476 23.58916,-1.61126 76.30511,-1.15062 77.64405,0.18862 21.21975,13.76142 17.01835,35.11406 17.01835,56.24981 0,12.08809 -2.60446,28.21618 22.64815,25.55803 8.16891,-1.85358 9.7748,-7.18846 9.72769,-20.6072 -0.0442,-12.67732 0.12749,-34.24974 0.4144,-51.60364 0,-4.1417 -0.76404,-30.65579 -0.55342,-41.80952 8.65582,4.32787 18.23296,18.60955 24.08285,25.17672 -0.12746,6.93484 0.0268,13.18069 0,15.82133 -0.14358,13.58734 0.38351,51.3433 0.21281,67.7482 -7.30631,14.61278 -9.17338,18.98417 -23.41041,25.52903 -5.53269,2.54336 -13.26741,4.15834 -19.99284,2.93828 -29.64441,-5.37856 -31.78551,-16.41957 -35.44599,-30.45818 -3.55572,-13.637 3.34043,-32.62376 -4.00339,-49.64893 -7.61726,-4.89235 -18.92037,-4.15113 -29.1842,-4.15113 -14.25388,0 -29.16454,-1.9091 -39.08853,3.05289 -8.51167,8.55857 -2.05709,14.11343 13.11475,16.23368 11.64709,1.62735 22.85283,4.53449 25.83029,10.54105 10.4587,8.95364 6.87159,37.03617 0.50002,42.83388 -2.30885,2.10098 -5.07523,7.449 -20.27206,9.59214 -16.66563,2.3504 -37.26644,1.18647 -53.65574,0.4311 -2.65856,-4.66656 -6.96844,-15.44214 -8.5193,-21.64452 z"
         style="fill:#ffffff;fill-opacity:1;stroke:none" />
      <path
         id="path3885"
         d="m 525.35714,85.01872 c -66.85818,0 -121.0625,54.17307 -121.0625,121.03125 0,66.85818 54.20432,121.0625 121.0625,121.0625 66.85818,0 121.0625,-54.20432 121.0625,-121.0625 0,-66.85818 -54.20432,-121.03125 -121.0625,-121.03125 z m 0,6.40625 c 63.3155,0 114.625,51.3095 114.625,114.625 0,63.3155 -51.3095,114.65625 -114.625,114.65625 -63.3155,0 -114.65625,-51.34075 -114.65625,-114.65625 0,-63.3155 51.34075,-114.625 114.65625,-114.625 z"
         style="fill:#dc9b3d;fill-opacity:1;stroke:none"
         inkscape:connector-curvature="0" />
    </g>
    <path
       id="path3916"
       d="m 845.5625,-121.15625 c 0.34477,21.10805 -4.05386,98.86637 -4.53125,99.34375 -6.05922,6.05923 -15.50724,10.37741 -25.25,13.625 C 792.04908,-0.27678 794.92692,-63.02115 787.5,-77.875 779.61426,-93.64648 731.1483,-96.12235 714.28125,-90.5 c -8.8351,2.94503 -15.26,11.19751 -20.71875,16.65625 -13.35173,13.35174 68.95998,32.54002 47.46875,54.03125 -13.61223,13.61223 -46.97257,10.32921 -70.15625,11 16.85281,35.21591 52.8225,59.53125 94.46875,59.53125 57.80467,0 104.6875,-46.85158 104.6875,-104.65625 0,-25.59824 -9.2086,-49.03223 -24.46875,-67.21875 z"
       style="fill:#dc9b3d;fill-opacity:0.61904764;stroke:none"
       inkscape:connector-curvature="0" />
    <path
       style="fill:none;stroke:#000000;stroke-width:1px;stroke-linecap:butt;stroke-linejoin:miter;stroke-opacity:1"
       d="m 724.26407,350.80614 c -17.91184,-82.57778 13.93633,-154.04827 102.53048,-154.04827 16.58755,0 30.69103,-0.11862 39.90103,9.09138 5.24031,5.24031 17.18434,3.54727 21.71828,8.08122 26.9352,26.9352 31.92225,102.93311 0,134.85536 -7.98456,7.98456 -27.37157,2.83557 -31.81981,-6.06091 -5.24612,-10.49225 -7.07398,-67.17806 -9.09137,-69.19545 -16.39197,-16.39197 -74.40134,-12.47178 -90.91373,4.04061 -3.64704,3.64704 -11.83726,16.447 -5.55584,22.72843 11.50335,11.50335 35.62795,12.89952 47.47717,24.74874 23.03557,23.03556 -61.21161,30.64686 -74.24621,25.75889 z"
       id="path3922"
       inkscape:connector-curvature="0" />
    <g
       id="g6119"
       inkscape:export-filename="\\www-deb\www\dev\projects\number_station\sources_graphic\st.png"
       inkscape:export-xdpi="11.89"
       inkscape:export-ydpi="11.89">
      <g
         id="g5599"
         transform="translate(-375.72322,-33.79824)"
         style="fill:#8e9d9f;fill-opacity:1">
        <path
           inkscape:connector-curvature="0"
           style="fill:#8e9d9f;fill-opacity:1;stroke:none"
           d="m 561.08036,418.81696 c -66.85818,0 -121.0625,54.17307 -121.0625,121.03125 0,66.85818 54.20432,121.0625 121.0625,121.0625 66.85818,0 121.0625,-54.20432 121.0625,-121.0625 0,-66.85818 -54.20432,-121.03125 -121.0625,-121.03125 z m 0,6.40625 c 63.3155,0 114.625,51.3095 114.625,114.625 0,63.3155 -51.3095,114.65625 -114.625,114.65625 -63.3155,0 -114.65625,-51.34075 -114.65625,-114.65625 0,-63.3155 51.34075,-114.625 114.65625,-114.625 z"
           id="path5601" />
        <path
           transform="matrix(0.91296239,0,0,0.91296239,306.42908,311.09695)"
           sodipodi:type="arc"
           style="fill:#8e9d9f;fill-opacity:1;stroke:none"
           id="path5603"
           sodipodi:cx="278.92856"
           sodipodi:cy="250.57646"
           sodipodi:rx="114.64286"
           sodipodi:ry="114.64286"
           d="m 393.57142,250.57646 c 0,63.31551 -51.32736,114.64286 -114.64286,114.64286 -63.31551,0 -114.64286,-51.32735 -114.64286,-114.64286 0,-63.3155 51.32735,-114.64286 114.64286,-114.64286 63.3155,0 114.64286,51.32736 114.64286,114.64286 z" />
      </g>
      <path
         sodipodi:nodetypes="csccssccscscccscssscscscsscc"
         inkscape:connector-curvature="0"
         id="path5605"
         d="m 84.276235,539.24674 c 7.65127,-0.16148 14.659535,-0.38111 21.906735,-0.38111 6.55197,0 27.55642,0.58413 36.23351,0.18866 8.81507,-0.86061 10.49552,-13.33201 7.4365,-15.96089 -10.69512,-3.6889 -57.35063,-7.72715 -49.82908,-36.39643 2.14391,-8.17136 3.95575,-13.83118 9.62167,-19.49711 5.41697,-5.41701 10.65817,-7.90669 17.56318,-9.92476 23.58916,-1.61126 76.30511,-1.15062 77.64405,0.18862 21.21975,13.76142 17.01835,35.11406 17.01835,56.24981 0,12.08809 -2.60446,28.21618 22.64815,25.55803 8.16891,-1.85358 9.7748,-7.18846 9.72769,-20.6072 -0.0442,-12.67732 0.12749,-34.24974 0.4144,-51.60364 0,-4.1417 -0.76404,-30.65579 -0.55342,-41.80952 8.65582,4.32787 18.23296,18.60955 24.08285,25.17672 -0.12746,6.93484 0.0268,13.18069 0,15.82133 -0.14358,13.58734 0.38351,51.3433 0.21281,67.7482 -7.30631,14.61278 -9.17338,18.98417 -23.41041,25.52903 -5.53269,2.54336 -13.26741,4.15834 -19.99284,2.93828 -29.64441,-5.37856 -31.78551,-16.41957 -35.44599,-30.45818 -3.55572,-13.637 3.34043,-32.62376 -4.00339,-49.64893 -7.61726,-4.89235 -18.92037,-4.15113 -29.1842,-4.15113 -14.25388,0 -29.16454,-1.9091 -39.08853,3.05289 -8.51167,8.55857 -2.05709,14.11343 13.11475,16.23368 11.64709,1.62735 22.85283,4.53449 25.83029,10.54105 10.4587,8.95364 6.87159,37.03617 0.50002,42.83388 -2.30885,2.10098 -5.07523,7.449 -20.27206,9.59214 -16.66563,2.3504 -37.26644,1.18647 -53.65574,0.4311 -2.65856,-4.66656 -6.968435,-15.44214 -8.519295,-21.64452 z"
         style="fill:#ffffff;fill-opacity:1;stroke:none" />
    </g>
    <g
       id="g3789"
       inkscape:export-filename="\\www-deb\www\dev\projects\number_station\sources_graphic\st_brand.png"
       inkscape:export-xdpi="11.89"
       inkscape:export-ydpi="11.89">
      <path
         style="fill:#1dad56;fill-opacity:1;stroke:none"
         d="m 525.34375,401.40625 c -57.80467,0 -104.65625,46.85158 -104.65625,104.65625 0,17.05221 4.10994,33.14968 11.34375,47.375 6.6775,0.82408 16.23879,3.16746 19,0.40625 7.85641,-7.85641 35.17528,-0.33153 47.96875,-13.125 24.38866,-24.38866 -65.89384,-39.63741 -43.40625,-62.125 5.01707,-5.01708 15.17392,-9.625 25.25,-9.625 13.54211,0 51.66554,-6.89695 61.09375,2.53125 16.09259,16.09259 0.4212,66.8981 24.25,78.8125 53.44109,26.72054 33.2751,-87.28457 39.90625,-110.875 -19.1974,-23.23147 -48.25915,-38.03125 -80.75,-38.03125 z"
         id="path3009"
         inkscape:connector-curvature="0" />
      <path
         style="fill:#0176bc;fill-opacity:1;stroke:none"
         d="m 605.5625,438.84375 c 0.34477,21.10805 -4.05386,98.86637 -4.53125,99.34375 -6.05922,6.05923 -15.50724,10.37741 -25.25,13.625 -23.73217,7.91072 -20.85433,-54.83365 -28.28125,-69.6875 -7.88574,-15.77148 -56.3517,-18.24735 -73.21875,-12.625 -8.8351,2.94503 -15.26,11.19751 -20.71875,16.65625 -13.35173,13.35174 68.95998,32.54002 47.46875,54.03125 -13.61223,13.61223 -46.97257,10.32921 -70.15625,11 16.85281,35.21591 52.8225,59.53125 94.46875,59.53125 57.80467,0 104.6875,-46.85158 104.6875,-104.65625 0,-25.59824 -9.2086,-49.03223 -24.46875,-67.21875 z"
         id="path3011"
         inkscape:connector-curvature="0" />
      <path
         style="fill:#ffffff;fill-opacity:1;stroke:none"
         d="m 424.27623,539.24674 c 7.65127,-0.16148 14.65954,-0.38111 21.90674,-0.38111 6.55197,0 27.55642,0.58413 36.23351,0.18866 8.81507,-0.86061 10.49552,-13.33201 7.4365,-15.96089 -10.69512,-3.6889 -57.35063,-7.72715 -49.82908,-36.39643 2.14391,-8.17136 3.95575,-13.83118 9.62167,-19.49711 5.41697,-5.41701 10.65817,-7.90669 17.56318,-9.92476 23.58916,-1.61126 76.30511,-1.15062 77.64405,0.18862 21.21975,13.76142 17.01835,35.11406 17.01835,56.24981 0,12.08809 -2.60446,28.21618 22.64815,25.55803 8.16891,-1.85358 9.7748,-7.18846 9.72769,-20.6072 -0.0442,-12.67732 0.12749,-34.24974 0.4144,-51.60364 0,-4.1417 -0.76404,-30.65579 -0.55342,-41.80952 8.65582,4.32787 18.23296,18.60955 24.08285,25.17672 -0.12746,6.93484 0.0268,13.18069 0,15.82133 -0.14358,13.58734 0.38351,51.3433 0.21281,67.7482 -7.30631,14.61278 -9.17338,18.98417 -23.41041,25.52903 -5.53269,2.54336 -13.26741,4.15834 -19.99284,2.93828 -29.64441,-5.37856 -31.78551,-16.41957 -35.44599,-30.45818 -3.55572,-13.637 3.34043,-32.62376 -4.00339,-49.64893 -7.61726,-4.89235 -18.92037,-4.15113 -29.1842,-4.15113 -14.25388,0 -29.16454,-1.9091 -39.08853,3.05289 -8.51167,8.55857 -2.05709,14.11343 13.11475,16.23368 11.64709,1.62735 22.85283,4.53449 25.83029,10.54105 10.4587,8.95364 6.87159,37.03617 0.50002,42.83388 -2.30885,2.10098 -5.07523,7.449 -20.27206,9.59214 -16.66563,2.3504 -37.26644,1.18647 -53.65574,0.4311 -2.65856,-4.66656 -6.96844,-15.44214 -8.5193,-21.64452 z"
         id="path3013"
         inkscape:connector-curvature="0"
         sodipodi:nodetypes="csccssccscscccscssscscscsscc" />
      <path
         inkscape:connector-curvature="0"
         style="fill:#8e9d9f;fill-opacity:1;stroke:none"
         d="m 525.35714,385.01872 c -66.85818,0 -121.0625,54.17307 -121.0625,121.03125 0,66.85818 54.20432,121.0625 121.0625,121.0625 66.85818,0 121.0625,-54.20432 121.0625,-121.0625 0,-66.85818 -54.20432,-121.03125 -121.0625,-121.03125 z m 0,6.40625 c 63.3155,0 114.625,51.3095 114.625,114.625 0,63.3155 -51.3095,114.65625 -114.625,114.65625 -63.3155,0 -114.65625,-51.34075 -114.65625,-114.65625 0,-63.3155 51.34075,-114.625 114.65625,-114.625 z"
         id="path3015" />
    </g>
  </g>
</svg>
