<?xml version="1.0" encoding="UTF-8" standalone="no"?>
<!-- Created with Inkscape (http://www.inkscape.org/) -->

<svg
   xmlns:dc="http://purl.org/dc/elements/1.1/"
   xmlns:cc="http://creativecommons.org/ns#"
   xmlns:rdf="http://www.w3.org/1999/02/22-rdf-syntax-ns#"
   xmlns:svg="http://www.w3.org/2000/svg"
   xmlns="http://www.w3.org/2000/svg"
   xmlns:xlink="http://www.w3.org/1999/xlink"
   xmlns:sodipodi="http://sodipodi.sourceforge.net/DTD/sodipodi-0.dtd"
   xmlns:inkscape="http://www.inkscape.org/namespaces/inkscape"
   width="744.09448819"
   height="1052.3622047"
   id="svg5905"
   version="1.1"
   inkscape:version="0.48.4 r9939"
   sodipodi:docname="twitter_logo.svg">
  <defs
     id="defs5907" />
  <sodipodi:namedview
     id="base"
     pagecolor="#ffffff"
     bordercolor="#666666"
     borderopacity="1.0"
     inkscape:pageopacity="0.0"
     inkscape:pageshadow="2"
     inkscape:zoom="1.4"
     inkscape:cx="177.50807"
     inkscape:cy="853.54183"
     inkscape:document-units="px"
     inkscape:current-layer="layer1"
     showgrid="false"
     inkscape:window-width="1366"
     inkscape:window-height="684"
     inkscape:window-x="-8"
     inkscape:window-y="-8"
     inkscape:window-maximized="1" />
  <metadata
     id="metadata5910">
    <rdf:RDF>
      <cc:Work
         rdf:about="">
        <dc:format>image/svg+xml</dc:format>
        <dc:type
           rdf:resource="http://purl.org/dc/dcmitype/StillImage" />
        <dc:title></dc:title>
      </cc:Work>
    </rdf:RDF>
  </metadata>
  <g
     inkscape:label="Layer 1"
     inkscape:groupmode="layer"
     id="layer1">
    <image
       y="-72.566391"
       x="886.5"
       id="image5921"
       xlink:href="file:///C:/Users/milos/Desktop/TwitterIcon.png"
       height="1067"
       width="1067" />
    <path
       style="fill:none;stroke:#000000;stroke-width:1px;stroke-linecap:butt;stroke-linejoin:miter;stroke-opacity:1"
       d="m 1357.0533,446.1481 c 111.0383,-1.7333 270.9903,7.0134 321.5541,-8.5504 23.9349,-7.36727 45.699,-30.18282 53.855,-54.89486 20.8029,-63.03107 -23.648,-103.54277 -41.5686,-116.46342 -38.4774,-27.74192 -284.2197,-7.62359 -330.2691,-14.38723 -3.0338,-9.81947 4.8063,-80.13172 -9.6046,-132.1394 -10.5235,-37.978436 -93.3234,-94.83912 -165.5702,-19.03686 -30.8248,32.34173 -21.0774,200.27819 -21.1414,256.57875 -0.077,67.4368 -2.0823,163.35629 2.9586,222.94785 4.6421,54.87689 47.9653,135.89921 111.8517,185.97016 31.9432,25.03547 71.7309,44.61175 114.4715,52.45948 42.7405,7.84773 92.016,3.37616 143.6168,4.94533 108.1792,3.28971 193.8811,3.17557 199.7861,-88.40322 1.4286,-22.15538 0.8156,-48.42107 -28.5714,-78.97753 -23.7595,-24.70496 -38.3182,-24.85943 -92.6373,-24.95448 -50.0564,-0.0876 -134.1891,-0.49889 -168.8009,-3.23581 -40.6156,-3.21168 -55.7723,-13.71464 -71.8555,-36.47319 -20.1857,-28.56389 -18.0748,-66.70835 -18.0748,-145.38517 z"
       id="path5926"
       inkscape:connector-curvature="0"
       sodipodi:nodetypes="cssscssssssssssssc" />
    <g
       id="g6513">
      <g
         transform="translate(-386.37505,-312.53963)"
         id="g4477">
        <path
           id="path4479"
           d="m 561.08036,418.81696 c -66.85818,0 -121.0625,54.17307 -121.0625,121.03125 0,66.85818 54.20432,121.0625 121.0625,121.0625 66.85818,0 121.0625,-54.20432 121.0625,-121.0625 0,-66.85818 -54.20432,-121.03125 -121.0625,-121.03125 z m 0,6.40625 c 63.3155,0 114.625,51.3095 114.625,114.625 0,63.3155 -51.3095,114.65625 -114.625,114.65625 -63.3155,0 -114.65625,-51.34075 -114.65625,-114.65625 0,-63.3155 51.34075,-114.625 114.65625,-114.625 z"
           style="fill:#dc9b3d;fill-opacity:1;stroke:none"
           inkscape:connector-curvature="0" />
        <path
           d="m 393.57142,250.57646 c 0,63.31551 -51.32736,114.64286 -114.64286,114.64286 -63.31551,0 -114.64286,-51.32735 -114.64286,-114.64286 0,-63.3155 51.32735,-114.64286 114.64286,-114.64286 63.3155,0 114.64286,51.32736 114.64286,114.64286 z"
           sodipodi:ry="114.64286"
           sodipodi:rx="114.64286"
           sodipodi:cy="250.57646"
           sodipodi:cx="278.92856"
           id="path4481"
           style="fill:#dc9b3d;fill-opacity:1;stroke:none"
           sodipodi:type="arc"
           transform="matrix(0.91296239,0,0,0.91296239,306.42908,311.09695)" />
      </g>
      <path
         style="fill:#ffffff;fill-opacity:1;stroke:none"
         d="m 153.87178,227.8205 c 24.78429,-0.38714 60.48606,1.56509 71.77195,-1.90874 5.3427,-1.64448 10.20035,-6.73727 12.02096,-12.25271 4.64296,-14.06913 -5.27823,-23.1115 -9.27868,-25.99502 -8.58815,-6.1921 -63.43887,-1.70163 -73.71737,-3.21119 -0.67706,-2.19224 1.07286,-17.88594 -2.14343,-29.49452 -2.34884,-8.47695 -20.8301,-21.16835 -36.95593,-4.24904 -6.88069,7.2189 -4.70469,44.70329 -4.71916,57.26978 -0.0178,15.05202 -0.46436,36.4614 0.66055,49.76269 1.03643,12.24894 10.70583,30.33306 24.96607,41.50942 7.1293,5.58797 16.01018,9.95738 25.55011,11.70913 9.53993,1.75165 20.5382,0.75352 32.05587,1.10345 24.14618,0.73455 43.27512,0.70921 44.593,-19.73179 0.31861,-4.94502 0.18216,-10.80742 -6.37698,-17.62804 -5.3035,-5.51432 -8.55298,-5.54866 -20.6774,-5.56994 -11.17229,-0.0208 -29.9512,-0.11149 -37.67678,-0.72224 -9.06537,-0.71713 -12.44846,-3.06139 -16.03835,-8.14065 -4.50589,-6.37563 -4.03443,-14.88967 -4.03443,-32.45059 z"
         id="path5928"
         inkscape:connector-curvature="0"
         sodipodi:nodetypes="cssscssssssssssssc" />
    </g>
    <g
       id="g3219"
       inkscape:export-filename="\\www-deb\www\dev\projects\number_station\sources_graphic\tv.png"
       inkscape:export-xdpi="11.896218"
       inkscape:export-ydpi="11.896218">
      <g
         style="fill:#00aced;fill-opacity:1"
         id="g6521"
         transform="translate(-126.37505,-312.53963)">
        <path
           inkscape:connector-curvature="0"
           style="fill:#00aced;fill-opacity:1;stroke:none"
           d="m 561.08036,418.81696 c -66.85818,0 -121.0625,54.17307 -121.0625,121.03125 0,66.85818 54.20432,121.0625 121.0625,121.0625 66.85818,0 121.0625,-54.20432 121.0625,-121.0625 0,-66.85818 -54.20432,-121.03125 -121.0625,-121.03125 z m 0,6.40625 c 63.3155,0 114.625,51.3095 114.625,114.625 0,63.3155 -51.3095,114.65625 -114.625,114.65625 -63.3155,0 -114.65625,-51.34075 -114.65625,-114.65625 0,-63.3155 51.34075,-114.625 114.65625,-114.625 z"
           id="path6523" />
        <path
           transform="matrix(0.91296239,0,0,0.91296239,306.42908,311.09695)"
           sodipodi:type="arc"
           style="fill:#00aced;fill-opacity:1;stroke:none"
           id="path6525"
           sodipodi:cx="278.92856"
           sodipodi:cy="250.57646"
           sodipodi:rx="114.64286"
           sodipodi:ry="114.64286"
           d="m 393.57142,250.57646 c 0,63.31551 -51.32736,114.64286 -114.64286,114.64286 -63.31551,0 -114.64286,-51.32735 -114.64286,-114.64286 0,-63.3155 51.32735,-114.64286 114.64286,-114.64286 63.3155,0 114.64286,51.32736 114.64286,114.64286 z" />
      </g>
      <path
         sodipodi:nodetypes="cssscssssssssssssc"
         inkscape:connector-curvature="0"
         id="path6527"
         d="m 413.87178,227.8205 c 24.78429,-0.38714 60.48606,1.56509 71.77195,-1.90874 5.3427,-1.64448 10.20035,-6.73727 12.02096,-12.25271 4.64296,-14.06913 -5.27823,-23.1115 -9.27868,-25.99502 -8.58815,-6.1921 -63.43887,-1.70163 -73.71737,-3.21119 -0.67706,-2.19224 1.07286,-17.88594 -2.14343,-29.49452 -2.34884,-8.47695 -20.8301,-21.16835 -36.95593,-4.24904 -6.88069,7.2189 -4.70469,44.70329 -4.71916,57.26978 -0.0178,15.05202 -0.46436,36.4614 0.66055,49.76269 1.03643,12.24894 10.70583,30.33306 24.96607,41.50942 7.1293,5.58797 16.01018,9.95738 25.55011,11.70913 9.53993,1.75165 20.5382,0.75352 32.05587,1.10345 24.14618,0.73455 43.27512,0.70921 44.593,-19.73179 0.31861,-4.94502 0.18216,-10.80742 -6.37698,-17.62804 -5.3035,-5.51432 -8.55298,-5.54866 -20.6774,-5.56994 -11.17229,-0.0208 -29.9512,-0.11149 -37.67678,-0.72224 -9.06537,-0.71713 -12.44846,-3.06139 -16.03835,-8.14065 -4.50589,-6.37563 -4.03443,-14.88967 -4.03443,-32.45059 z"
         style="fill:#ffffff;fill-opacity:1;stroke:none" />
    </g>
    <g
       id="g6681"
       inkscape:export-filename="\\www-deb\www\dev\projects\number_station\sources_graphic\t.png"
       inkscape:export-xdpi="11.89"
       inkscape:export-ydpi="11.89">
      <path
         id="path6161"
         d="m 174.70531,366.27733 c -66.85818,0 -121.0625,54.17307 -121.0625,121.03125 0,66.85818 54.20432,121.0625 121.0625,121.0625 66.85818,0 121.0625,-54.20432 121.0625,-121.0625 0,-66.85818 -54.20432,-121.03125 -121.0625,-121.03125 z m 0,6.40625 c 63.3155,0 114.625,51.3095 114.625,114.625 0,63.3155 -51.3095,114.65625 -114.625,114.65625 -63.3155,0 -114.65625,-51.34075 -114.65625,-114.65625 0,-63.3155 51.34075,-114.625 114.65625,-114.625 z"
         style="fill:#8e9d9f;fill-opacity:1;stroke:none"
         inkscape:connector-curvature="0" />
      <path
         d="m 393.57142,250.57646 a 114.64286,114.64286 0 1 1 -229.28572,0 114.64286,114.64286 0 1 1 229.28572,0 z"
         sodipodi:ry="114.64286"
         sodipodi:rx="114.64286"
         sodipodi:cy="250.57646"
         sodipodi:cx="278.92856"
         id="path6163"
         style="fill:#8e9d9f;fill-opacity:1;stroke:none"
         sodipodi:type="arc"
         transform="matrix(0.91296239,0,0,0.91296239,-79.94597,258.55732)" />
      <path
         sodipodi:nodetypes="cssscssssssssssssc"
         inkscape:connector-curvature="0"
         id="path6165"
         d="m 153.87178,487.8205 c 24.78429,-0.38714 60.48606,1.56509 71.77195,-1.90874 5.3427,-1.64448 10.20035,-6.73727 12.02096,-12.25271 4.64296,-14.06913 -5.27823,-23.1115 -9.27868,-25.99502 -8.58815,-6.1921 -63.43887,-1.70163 -73.71737,-3.21119 -0.67706,-2.19224 1.07286,-17.88594 -2.14343,-29.49452 -2.34884,-8.47695 -20.8301,-21.16835 -36.95593,-4.24904 -6.88069,7.2189 -4.70469,44.70329 -4.71916,57.26978 -0.0178,15.05202 -0.46436,36.4614 0.66055,49.76269 1.03643,12.24894 10.70583,30.33306 24.96607,41.50942 7.1293,5.58797 16.01018,9.95738 25.55011,11.70913 9.53993,1.75165 20.5382,0.75352 32.05587,1.10345 24.14618,0.73455 43.27512,0.70921 44.593,-19.73179 0.31861,-4.94502 0.18216,-10.80742 -6.37698,-17.62804 -5.3035,-5.51432 -8.55298,-5.54866 -20.6774,-5.56994 -11.17229,-0.0208 -29.9512,-0.11149 -37.67678,-0.72224 -9.06537,-0.71713 -12.44846,-3.06139 -16.03835,-8.14065 -4.50589,-6.37563 -4.03443,-14.88967 -4.03443,-32.45059 z"
         style="fill:#ffffff;fill-opacity:1;stroke:none" />
    </g>
  </g>
</svg>
